<?xml version="1.0" encoding="UTF-8" standalone="no"?>
<!DOCTYPE svg PUBLIC "-//W3C//DTD SVG 1.1//EN" "http://www.w3.org/Graphics/SVG/1.1/DTD/svg11.dtd">
<svg width="100%" height="100%" viewBox="0 0 532 296" version="1.1" xmlns="http://www.w3.org/2000/svg" xmlns:xlink="http://www.w3.org/1999/xlink" xml:space="preserve" xmlns:serif="http://www.serif.com/" style="fill-rule:evenodd;clip-rule:evenodd;stroke-linejoin:round;stroke-miterlimit:2;">
    <g transform="matrix(1,0,0,1,-201.629,-1188.03)">
        <g transform="matrix(1,0,0,1,-2.84217e-14,-100.149)">
            <g transform="matrix(600,0,0,600,209.833,1527.24)">
                <path d="M0.01,0.079C0.01,0.078 0.01,0.077 0.012,0.076C0.012,0.076 0.013,0.075 0.015,0.075L0.026,0.079L0.063,0.079C0.063,0.079 0.064,0.079 0.064,0.078C0.065,0.077 0.067,0.076 0.069,0.075L0.071,0.072C0.07,0.07 0.068,0.068 0.064,0.067C0.061,0.066 0.06,0.064 0.06,0.061L0.06,0.058C0.06,0.056 0.06,0.054 0.061,0.052C0.062,0.049 0.063,0.047 0.063,0.046C0.063,0.044 0.064,0.04 0.065,0.035C0.067,0.029 0.072,0.006 0.073,0.001C0.075,-0.004 0.076,-0.008 0.076,-0.011L0.076,-0.014C0.076,-0.014 0.076,-0.015 0.075,-0.017C0.074,-0.019 0.073,-0.021 0.071,-0.021L0.026,-0.021C0.024,-0.021 0.021,-0.022 0.019,-0.024C0.016,-0.027 0.015,-0.03 0.015,-0.032C0.014,-0.034 0.013,-0.037 0.012,-0.041C0.01,-0.044 0.009,-0.048 0.008,-0.052C0.007,-0.056 0.007,-0.059 0.006,-0.063C0.005,-0.067 0.005,-0.069 0.005,-0.07L0.005,-0.08L0.081,-0.384L0.083,-0.389L0.091,-0.396L0.15,-0.396C0.151,-0.396 0.152,-0.395 0.152,-0.394C0.154,-0.392 0.155,-0.39 0.157,-0.389L0.157,-0.387L0.154,-0.382C0.154,-0.381 0.154,-0.378 0.152,-0.375C0.151,-0.371 0.15,-0.368 0.15,-0.367L0.071,-0.054L0.071,-0.037L0.074,-0.032L0.076,-0.03C0.081,-0.03 0.083,-0.033 0.083,-0.039L0.164,-0.362L0.164,-0.37C0.164,-0.373 0.164,-0.376 0.163,-0.379C0.162,-0.382 0.162,-0.385 0.162,-0.389L0.162,-0.392C0.162,-0.392 0.163,-0.393 0.164,-0.395C0.165,-0.395 0.166,-0.396 0.167,-0.396L0.212,-0.396L0.216,-0.393C0.217,-0.391 0.218,-0.39 0.219,-0.389C0.219,-0.388 0.22,-0.387 0.221,-0.387C0.221,-0.386 0.221,-0.385 0.222,-0.384C0.223,-0.381 0.224,-0.38 0.224,-0.379C0.225,-0.376 0.226,-0.37 0.228,-0.362C0.23,-0.354 0.23,-0.35 0.23,-0.349L0.23,-0.337L0.133,0.054C0.133,0.054 0.133,0.055 0.132,0.056C0.132,0.056 0.132,0.057 0.132,0.058C0.131,0.059 0.131,0.06 0.131,0.061L0.124,0.067L0.083,0.067L0.081,0.072L0.083,0.075C0.084,0.076 0.085,0.077 0.088,0.078C0.089,0.079 0.09,0.079 0.091,0.079L0.143,0.079L0.146,0.077C0.146,0.076 0.146,0.076 0.146,0.074C0.146,0.074 0.147,0.073 0.147,0.072C0.147,0.072 0.147,0.071 0.147,0.07L0.245,-0.32L0.245,-0.327C0.244,-0.329 0.244,-0.332 0.243,-0.335C0.242,-0.339 0.241,-0.343 0.24,-0.347C0.239,-0.351 0.238,-0.354 0.237,-0.358C0.237,-0.361 0.236,-0.364 0.235,-0.365L0.23,-0.375L0.23,-0.377C0.23,-0.382 0.232,-0.384 0.235,-0.384C0.241,-0.384 0.244,-0.382 0.246,-0.378C0.247,-0.375 0.249,-0.371 0.25,-0.367C0.253,-0.359 0.255,-0.351 0.256,-0.345C0.258,-0.338 0.259,-0.331 0.259,-0.322L0.259,-0.317L0.159,0.082L0.157,0.087C0.156,0.088 0.154,0.089 0.152,0.091C0.152,0.092 0.151,0.093 0.15,0.094L0.017,0.094C0.015,0.093 0.014,0.092 0.013,0.091C0.011,0.09 0.01,0.089 0.01,0.087L0.01,0.079ZM-0.014,0.027C-0.013,0.027 -0.013,0.026 -0.012,0.025C-0.012,0.024 -0.011,0.023 -0.01,0.022C-0.009,0.022 -0.008,0.021 -0.007,0.021L0.043,0.021C0.044,0.021 0.045,0.022 0.046,0.022C0.047,0.023 0.047,0.024 0.048,0.025C0.049,0.026 0.049,0.027 0.05,0.027L0.05,0.029C0.05,0.032 0.049,0.034 0.049,0.037C0.048,0.039 0.048,0.041 0.048,0.044L0.048,0.046C0.048,0.047 0.049,0.05 0.05,0.053C0.052,0.057 0.053,0.059 0.053,0.061L0.046,0.067L0.003,0.067C-0.001,0.067 -0.004,0.065 -0.005,0.061C-0.006,0.057 -0.007,0.053 -0.009,0.051C-0.009,0.048 -0.01,0.045 -0.011,0.041C-0.013,0.036 -0.014,0.034 -0.014,0.032L-0.014,0.027ZM0.031,-0.006C0.031,-0.011 0.033,-0.014 0.036,-0.014L0.041,-0.014L0.046,-0.011C0.048,-0.011 0.052,-0.01 0.058,-0.01C0.063,-0.009 0.066,-0.006 0.066,-0.001C0.066,0.002 0.065,0.004 0.062,0.005C0.058,0.006 0.055,0.006 0.053,0.006C0.048,0.006 0.043,0.005 0.038,0.003C0.034,0.002 0.031,-0.001 0.031,-0.006Z" style="fill-rule:nonzero;"/>
            </g>
            <g transform="matrix(600,0,0,600,332.294,1527.24)">
                <path d="M0.033,-0.015C0.033,-0.018 0.035,-0.02 0.04,-0.02C0.043,-0.02 0.046,-0.019 0.049,-0.017L0.087,-0.017C0.09,-0.019 0.092,-0.021 0.093,-0.021C0.095,-0.021 0.098,-0.021 0.102,-0.021C0.104,-0.021 0.105,-0.021 0.107,-0.021C0.109,-0.021 0.111,-0.019 0.113,-0.017L0.17,-0.017L0.245,-0.321L0.245,-0.326C0.245,-0.333 0.244,-0.341 0.242,-0.348C0.24,-0.356 0.238,-0.362 0.235,-0.368L0.231,-0.378L0.231,-0.38C0.231,-0.384 0.234,-0.387 0.238,-0.387C0.242,-0.387 0.244,-0.385 0.246,-0.382C0.247,-0.379 0.249,-0.376 0.25,-0.373C0.251,-0.37 0.254,-0.355 0.255,-0.352C0.256,-0.348 0.257,-0.344 0.258,-0.341C0.259,-0.338 0.26,-0.336 0.26,-0.335L0.26,-0.318L0.184,-0.017C0.182,-0.013 0.181,-0.01 0.178,-0.006C0.176,-0.002 0.173,-0 0.17,-0L0.045,-0C0.042,-0 0.04,-0.002 0.037,-0.005C0.035,-0.009 0.033,-0.012 0.033,-0.015ZM0.009,-0.093L0.082,-0.385C0.082,-0.386 0.082,-0.387 0.083,-0.389C0.084,-0.389 0.084,-0.39 0.085,-0.392C0.086,-0.392 0.086,-0.393 0.086,-0.394C0.087,-0.395 0.088,-0.396 0.089,-0.396C0.09,-0.397 0.09,-0.398 0.092,-0.398L0.15,-0.398C0.151,-0.398 0.152,-0.397 0.153,-0.396C0.155,-0.396 0.155,-0.395 0.156,-0.394C0.156,-0.393 0.157,-0.392 0.158,-0.392C0.158,-0.389 0.157,-0.386 0.156,-0.384C0.154,-0.381 0.153,-0.379 0.153,-0.378L0.073,-0.057L0.073,-0.052C0.073,-0.049 0.074,-0.045 0.074,-0.042C0.075,-0.04 0.075,-0.036 0.075,-0.033C0.075,-0.032 0.074,-0.03 0.071,-0.029C0.069,-0.027 0.067,-0.026 0.065,-0.026L0.03,-0.026L0.025,-0.028C0.023,-0.03 0.021,-0.031 0.02,-0.034C0.019,-0.036 0.018,-0.038 0.017,-0.04C0.015,-0.044 0.014,-0.049 0.012,-0.056C0.01,-0.063 0.009,-0.067 0.009,-0.068L0.009,-0.093ZM0.082,-0.036L0.085,-0.043L0.165,-0.363L0.165,-0.373C0.165,-0.376 0.165,-0.379 0.164,-0.382C0.163,-0.385 0.162,-0.388 0.162,-0.392C0.163,-0.392 0.163,-0.393 0.164,-0.394C0.165,-0.395 0.166,-0.396 0.167,-0.396C0.168,-0.397 0.169,-0.398 0.17,-0.398L0.212,-0.398C0.216,-0.398 0.219,-0.396 0.221,-0.391C0.223,-0.386 0.225,-0.381 0.227,-0.374C0.229,-0.368 0.23,-0.361 0.23,-0.356C0.231,-0.35 0.231,-0.347 0.231,-0.345L0.231,-0.338L0.155,-0.036C0.154,-0.035 0.153,-0.035 0.152,-0.033C0.151,-0.032 0.15,-0.031 0.15,-0.03C0.15,-0.03 0.149,-0.029 0.148,-0.028L0.144,-0.026L0.092,-0.026C0.09,-0.026 0.089,-0.027 0.086,-0.029C0.083,-0.03 0.082,-0.032 0.082,-0.033L0.082,-0.036Z" style="fill-rule:nonzero;"/>
            </g>
            <g transform="matrix(600,0,0,600,454.754,1527.24)">
                <path d="M0.01,0.079C0.01,0.078 0.01,0.077 0.012,0.076C0.012,0.076 0.013,0.075 0.015,0.075L0.026,0.079L0.063,0.079C0.063,0.079 0.064,0.079 0.064,0.078C0.065,0.077 0.067,0.076 0.069,0.075L0.071,0.072C0.07,0.07 0.068,0.068 0.064,0.067C0.061,0.066 0.06,0.064 0.06,0.061L0.06,0.058C0.06,0.056 0.06,0.054 0.061,0.052C0.062,0.049 0.063,0.047 0.063,0.046C0.063,0.044 0.064,0.04 0.065,0.035C0.067,0.029 0.072,0.006 0.073,0.001C0.075,-0.004 0.076,-0.008 0.076,-0.011L0.076,-0.014C0.076,-0.014 0.076,-0.015 0.075,-0.017C0.074,-0.019 0.073,-0.021 0.071,-0.021L0.026,-0.021C0.024,-0.021 0.021,-0.022 0.019,-0.024C0.016,-0.027 0.015,-0.03 0.015,-0.032C0.014,-0.034 0.013,-0.037 0.012,-0.041C0.01,-0.044 0.009,-0.048 0.008,-0.052C0.007,-0.056 0.007,-0.059 0.006,-0.063C0.005,-0.067 0.005,-0.069 0.005,-0.07L0.005,-0.08L0.081,-0.384L0.083,-0.389L0.091,-0.396L0.15,-0.396C0.151,-0.396 0.152,-0.395 0.152,-0.394C0.154,-0.392 0.155,-0.39 0.157,-0.389L0.157,-0.387L0.154,-0.382C0.154,-0.381 0.154,-0.378 0.152,-0.375C0.151,-0.371 0.15,-0.368 0.15,-0.367L0.071,-0.054L0.071,-0.037L0.074,-0.032L0.076,-0.03C0.081,-0.03 0.083,-0.033 0.083,-0.039L0.164,-0.362L0.164,-0.37C0.164,-0.373 0.164,-0.376 0.163,-0.379C0.162,-0.382 0.162,-0.385 0.162,-0.389L0.162,-0.392C0.162,-0.392 0.163,-0.393 0.164,-0.395C0.165,-0.395 0.166,-0.396 0.167,-0.396L0.212,-0.396L0.216,-0.393C0.217,-0.391 0.218,-0.39 0.219,-0.389C0.219,-0.388 0.22,-0.387 0.221,-0.387C0.221,-0.386 0.221,-0.385 0.222,-0.384C0.223,-0.381 0.224,-0.38 0.224,-0.379C0.225,-0.376 0.226,-0.37 0.228,-0.362C0.23,-0.354 0.23,-0.35 0.23,-0.349L0.23,-0.337L0.133,0.054C0.133,0.054 0.133,0.055 0.132,0.056C0.132,0.056 0.132,0.057 0.132,0.058C0.131,0.059 0.131,0.06 0.131,0.061L0.124,0.067L0.083,0.067L0.081,0.072L0.083,0.075C0.084,0.076 0.085,0.077 0.088,0.078C0.089,0.079 0.09,0.079 0.091,0.079L0.143,0.079L0.146,0.077C0.146,0.076 0.146,0.076 0.146,0.074C0.146,0.074 0.147,0.073 0.147,0.072C0.147,0.072 0.147,0.071 0.147,0.07L0.245,-0.32L0.245,-0.327C0.244,-0.329 0.244,-0.332 0.243,-0.335C0.242,-0.339 0.241,-0.343 0.24,-0.347C0.239,-0.351 0.238,-0.354 0.237,-0.358C0.237,-0.361 0.236,-0.364 0.235,-0.365L0.23,-0.375L0.23,-0.377C0.23,-0.382 0.232,-0.384 0.235,-0.384C0.241,-0.384 0.244,-0.382 0.246,-0.378C0.247,-0.375 0.249,-0.371 0.25,-0.367C0.253,-0.359 0.255,-0.351 0.256,-0.345C0.258,-0.338 0.259,-0.331 0.259,-0.322L0.259,-0.317L0.159,0.082L0.157,0.087C0.156,0.088 0.154,0.089 0.152,0.091C0.152,0.092 0.151,0.093 0.15,0.094L0.017,0.094C0.015,0.093 0.014,0.092 0.013,0.091C0.011,0.09 0.01,0.089 0.01,0.087L0.01,0.079ZM-0.014,0.027C-0.013,0.027 -0.013,0.026 -0.012,0.025C-0.012,0.024 -0.011,0.023 -0.01,0.022C-0.009,0.022 -0.008,0.021 -0.007,0.021L0.043,0.021C0.044,0.021 0.045,0.022 0.046,0.022C0.047,0.023 0.047,0.024 0.048,0.025C0.049,0.026 0.049,0.027 0.05,0.027L0.05,0.029C0.05,0.032 0.049,0.034 0.049,0.037C0.048,0.039 0.048,0.041 0.048,0.044L0.048,0.046C0.048,0.047 0.049,0.05 0.05,0.053C0.052,0.057 0.053,0.059 0.053,0.061L0.046,0.067L0.003,0.067C-0.001,0.067 -0.004,0.065 -0.005,0.061C-0.006,0.057 -0.007,0.053 -0.009,0.051C-0.009,0.048 -0.01,0.045 -0.011,0.041C-0.013,0.036 -0.014,0.034 -0.014,0.032L-0.014,0.027ZM0.031,-0.006C0.031,-0.011 0.033,-0.014 0.036,-0.014L0.041,-0.014L0.046,-0.011C0.048,-0.011 0.052,-0.01 0.058,-0.01C0.063,-0.009 0.066,-0.006 0.066,-0.001C0.066,0.002 0.065,0.004 0.062,0.005C0.058,0.006 0.055,0.006 0.053,0.006C0.048,0.006 0.043,0.005 0.038,0.003C0.034,0.002 0.031,-0.001 0.031,-0.006Z" style="fill-rule:nonzero;"/>
            </g>
            <g transform="matrix(600,0,0,600,577.215,1527.24)">
                <path d="M0.033,-0.015C0.033,-0.018 0.035,-0.02 0.04,-0.02C0.043,-0.02 0.046,-0.019 0.049,-0.017L0.087,-0.017C0.09,-0.019 0.092,-0.021 0.093,-0.021C0.095,-0.021 0.098,-0.021 0.102,-0.021C0.104,-0.021 0.105,-0.021 0.107,-0.021C0.109,-0.021 0.111,-0.019 0.113,-0.017L0.17,-0.017L0.245,-0.321L0.245,-0.326C0.245,-0.333 0.244,-0.341 0.242,-0.348C0.24,-0.356 0.238,-0.362 0.235,-0.368L0.231,-0.378L0.231,-0.38C0.231,-0.384 0.234,-0.387 0.238,-0.387C0.242,-0.387 0.244,-0.385 0.246,-0.382C0.247,-0.379 0.249,-0.376 0.25,-0.373C0.251,-0.37 0.254,-0.355 0.255,-0.352C0.256,-0.348 0.257,-0.344 0.258,-0.341C0.259,-0.338 0.26,-0.336 0.26,-0.335L0.26,-0.318L0.184,-0.017C0.182,-0.013 0.181,-0.01 0.178,-0.006C0.176,-0.002 0.173,-0 0.17,-0L0.045,-0C0.042,-0 0.04,-0.002 0.037,-0.005C0.035,-0.009 0.033,-0.012 0.033,-0.015ZM0.009,-0.093L0.082,-0.385C0.082,-0.386 0.082,-0.387 0.083,-0.389C0.084,-0.389 0.084,-0.39 0.085,-0.392C0.086,-0.392 0.086,-0.393 0.086,-0.394C0.087,-0.395 0.088,-0.396 0.089,-0.396C0.09,-0.397 0.09,-0.398 0.092,-0.398L0.15,-0.398C0.151,-0.398 0.152,-0.397 0.153,-0.396C0.155,-0.396 0.155,-0.395 0.156,-0.394C0.156,-0.393 0.157,-0.392 0.158,-0.392C0.158,-0.389 0.157,-0.386 0.156,-0.384C0.154,-0.381 0.153,-0.379 0.153,-0.378L0.073,-0.057L0.073,-0.052C0.073,-0.049 0.074,-0.045 0.074,-0.042C0.075,-0.04 0.075,-0.036 0.075,-0.033C0.075,-0.032 0.074,-0.03 0.071,-0.029C0.069,-0.027 0.067,-0.026 0.065,-0.026L0.03,-0.026L0.025,-0.028C0.023,-0.03 0.021,-0.031 0.02,-0.034C0.019,-0.036 0.018,-0.038 0.017,-0.04C0.015,-0.044 0.014,-0.049 0.012,-0.056C0.01,-0.063 0.009,-0.067 0.009,-0.068L0.009,-0.093ZM0.082,-0.036L0.085,-0.043L0.165,-0.363L0.165,-0.373C0.165,-0.376 0.165,-0.379 0.164,-0.382C0.163,-0.385 0.162,-0.388 0.162,-0.392C0.163,-0.392 0.163,-0.393 0.164,-0.394C0.165,-0.395 0.166,-0.396 0.167,-0.396C0.168,-0.397 0.169,-0.398 0.17,-0.398L0.212,-0.398C0.216,-0.398 0.219,-0.396 0.221,-0.391C0.223,-0.386 0.225,-0.381 0.227,-0.374C0.229,-0.368 0.23,-0.361 0.23,-0.356C0.231,-0.35 0.231,-0.347 0.231,-0.345L0.231,-0.338L0.155,-0.036C0.154,-0.035 0.153,-0.035 0.152,-0.033C0.151,-0.032 0.15,-0.031 0.15,-0.03C0.15,-0.03 0.149,-0.029 0.148,-0.028L0.144,-0.026L0.092,-0.026C0.09,-0.026 0.089,-0.027 0.086,-0.029C0.083,-0.03 0.082,-0.032 0.082,-0.033L0.082,-0.036Z" style="fill-rule:nonzero;"/>
            </g>
        </g>
    </g>
</svg>
