<?xml version="1.0" encoding="UTF-8" standalone="no"?>
<!DOCTYPE svg PUBLIC "-//W3C//DTD SVG 1.1//EN" "http://www.w3.org/Graphics/SVG/1.1/DTD/svg11.dtd">
<svg width="100%" height="100%" viewBox="0 0 2041 355" version="1.1" xmlns="http://www.w3.org/2000/svg" xmlns:xlink="http://www.w3.org/1999/xlink" xml:space="preserve" xmlns:serif="http://www.serif.com/" style="fill-rule:evenodd;clip-rule:evenodd;stroke-linejoin:round;stroke-miterlimit:2;">
    <g transform="matrix(1,0,0,1,-205.539,-759.301)">
        <g transform="matrix(1,0,0,1,-133.596,-160.768)">
            <g transform="matrix(416.667,0,0,416.667,340.801,1269.24)">
                <path d="M0.456,-0.735L0.456,-0.065C0.456,-0.056 0.461,-0.05 0.471,-0.045C0.48,-0.04 0.492,-0.037 0.505,-0.035C0.518,-0.032 0.53,-0.031 0.543,-0.03C0.556,-0.029 0.565,-0.027 0.571,-0.026C0.574,-0.022 0.576,-0.019 0.577,-0.017C0.578,-0.015 0.578,-0.012 0.578,-0.009C0.578,-0.002 0.574,0.002 0.567,0.005C0.56,0.008 0.553,0.009 0.547,0.009C0.539,0.009 0.527,0.008 0.512,0.007C0.496,0.006 0.479,0.004 0.462,0.002C0.444,0 0.427,-0.002 0.411,-0.003C0.394,-0.004 0.382,-0.005 0.373,-0.005C0.358,-0.005 0.343,-0.005 0.33,-0.005C0.316,-0.004 0.301,-0.003 0.286,-0C0.283,-0 0.278,0.001 0.271,0.002C0.264,0.003 0.257,0.005 0.249,0.007C0.241,0.008 0.233,0.01 0.225,0.011C0.217,0.012 0.211,0.013 0.206,0.013C0.202,0.013 0.199,0.011 0.197,0.008C0.195,0.005 0.194,0.002 0.194,-0C0.194,-0.005 0.197,-0.009 0.203,-0.012C0.208,-0.015 0.213,-0.017 0.217,-0.018C0.219,-0.019 0.223,-0.02 0.23,-0.022C0.237,-0.023 0.244,-0.025 0.251,-0.027C0.258,-0.028 0.266,-0.03 0.273,-0.032C0.28,-0.034 0.286,-0.036 0.29,-0.037C0.303,-0.04 0.312,-0.044 0.318,-0.049C0.324,-0.054 0.327,-0.064 0.327,-0.079L0.327,-0.712C0.327,-0.719 0.326,-0.725 0.325,-0.733C0.323,-0.74 0.318,-0.743 0.309,-0.743L0.18,-0.743C0.163,-0.743 0.148,-0.741 0.136,-0.739C0.123,-0.736 0.112,-0.731 0.101,-0.725C0.088,-0.718 0.076,-0.709 0.063,-0.699C0.05,-0.688 0.04,-0.676 0.033,-0.663C0.032,-0.661 0.031,-0.658 0.03,-0.655C0.029,-0.652 0.027,-0.648 0.026,-0.645C0.025,-0.641 0.023,-0.638 0.021,-0.635C0.019,-0.632 0.017,-0.631 0.014,-0.631C0.011,-0.631 0.007,-0.635 0.003,-0.644C-0.002,-0.652 -0.004,-0.66 -0.004,-0.669C-0.004,-0.678 -0.002,-0.687 0.002,-0.696C0.005,-0.705 0.01,-0.714 0.015,-0.725C0.02,-0.736 0.026,-0.747 0.032,-0.759C0.038,-0.771 0.044,-0.784 0.049,-0.799L0.049,-0.809C0.049,-0.811 0.05,-0.814 0.051,-0.818C0.053,-0.821 0.056,-0.823 0.06,-0.824C0.063,-0.825 0.067,-0.825 0.071,-0.825C0.074,-0.825 0.077,-0.824 0.08,-0.822C0.082,-0.82 0.084,-0.818 0.087,-0.815C0.089,-0.812 0.091,-0.809 0.095,-0.806C0.097,-0.803 0.101,-0.801 0.105,-0.8C0.114,-0.797 0.141,-0.794 0.186,-0.791C0.23,-0.787 0.297,-0.785 0.387,-0.785C0.398,-0.785 0.41,-0.785 0.424,-0.786C0.438,-0.787 0.452,-0.787 0.468,-0.788C0.483,-0.789 0.497,-0.789 0.512,-0.79C0.527,-0.791 0.54,-0.791 0.552,-0.791C0.561,-0.791 0.57,-0.791 0.578,-0.79C0.585,-0.789 0.594,-0.787 0.603,-0.786C0.612,-0.785 0.623,-0.783 0.635,-0.782C0.646,-0.781 0.655,-0.78 0.66,-0.78C0.667,-0.78 0.671,-0.784 0.671,-0.792C0.671,-0.797 0.672,-0.801 0.675,-0.804C0.678,-0.808 0.683,-0.813 0.689,-0.819C0.695,-0.825 0.7,-0.828 0.704,-0.828C0.707,-0.828 0.71,-0.826 0.714,-0.822C0.718,-0.817 0.722,-0.812 0.726,-0.806C0.729,-0.8 0.733,-0.794 0.736,-0.788C0.739,-0.782 0.742,-0.777 0.744,-0.774C0.747,-0.768 0.749,-0.761 0.75,-0.752C0.751,-0.743 0.753,-0.737 0.754,-0.732C0.755,-0.729 0.759,-0.723 0.764,-0.716C0.769,-0.708 0.774,-0.7 0.78,-0.691C0.785,-0.682 0.79,-0.674 0.795,-0.666C0.799,-0.657 0.801,-0.651 0.801,-0.646C0.801,-0.636 0.797,-0.631 0.788,-0.631C0.783,-0.631 0.776,-0.634 0.769,-0.64C0.761,-0.646 0.753,-0.653 0.745,-0.662C0.737,-0.67 0.729,-0.678 0.72,-0.687C0.711,-0.695 0.703,-0.701 0.696,-0.706C0.691,-0.709 0.684,-0.712 0.676,-0.716C0.667,-0.72 0.658,-0.724 0.649,-0.728C0.639,-0.731 0.629,-0.735 0.62,-0.738C0.611,-0.74 0.603,-0.742 0.596,-0.743C0.585,-0.744 0.575,-0.745 0.564,-0.746C0.553,-0.746 0.542,-0.746 0.531,-0.746L0.498,-0.746C0.497,-0.746 0.494,-0.746 0.49,-0.746C0.485,-0.745 0.481,-0.745 0.476,-0.744C0.471,-0.743 0.466,-0.741 0.462,-0.74C0.458,-0.739 0.456,-0.737 0.456,-0.735Z" style="fill-rule:nonzero;"/>
            </g>
            <g transform="matrix(416.667,0,0,416.667,687.051,1269.24)">
                <path d="M0.017,-0.012C0.017,-0.023 0.022,-0.029 0.032,-0.029L0.086,-0.029C0.101,-0.03 0.108,-0.038 0.108,-0.053L0.108,-0.509C0.108,-0.539 0.109,-0.564 0.111,-0.585C0.113,-0.606 0.114,-0.628 0.114,-0.652C0.114,-0.668 0.11,-0.684 0.102,-0.699C0.094,-0.713 0.083,-0.721 0.068,-0.721C0.057,-0.721 0.047,-0.719 0.036,-0.715C0.025,-0.71 0.017,-0.708 0.011,-0.708C0.003,-0.708 -0.001,-0.712 -0.001,-0.719C-0.001,-0.722 -0.001,-0.725 0.001,-0.729C0.002,-0.732 0.004,-0.734 0.007,-0.735C0.018,-0.741 0.032,-0.747 0.049,-0.754C0.065,-0.76 0.081,-0.767 0.098,-0.774C0.113,-0.781 0.126,-0.787 0.137,-0.793C0.148,-0.799 0.159,-0.805 0.172,-0.812C0.182,-0.819 0.19,-0.822 0.197,-0.822C0.2,-0.822 0.203,-0.819 0.204,-0.813C0.205,-0.811 0.205,-0.806 0.206,-0.799C0.207,-0.791 0.207,-0.786 0.207,-0.784L0.207,-0.435C0.207,-0.43 0.209,-0.428 0.213,-0.428C0.226,-0.445 0.24,-0.462 0.253,-0.478C0.266,-0.494 0.281,-0.509 0.298,-0.522C0.311,-0.532 0.326,-0.541 0.342,-0.548C0.358,-0.555 0.376,-0.558 0.395,-0.558C0.423,-0.558 0.449,-0.553 0.474,-0.542C0.498,-0.531 0.518,-0.512 0.533,-0.487C0.538,-0.478 0.543,-0.465 0.547,-0.448C0.551,-0.431 0.554,-0.414 0.557,-0.396C0.559,-0.377 0.561,-0.359 0.562,-0.342C0.563,-0.325 0.563,-0.311 0.563,-0.3L0.563,-0.041C0.563,-0.036 0.565,-0.033 0.57,-0.033L0.637,-0.033C0.641,-0.033 0.645,-0.033 0.648,-0.032C0.651,-0.031 0.652,-0.028 0.652,-0.025C0.652,-0.018 0.65,-0.012 0.646,-0.008C0.641,-0.003 0.637,-0 0.632,-0C0.615,-0 0.598,-0.001 0.581,-0.002C0.564,-0.003 0.545,-0.003 0.525,-0.003C0.504,-0.003 0.482,-0.003 0.461,-0.002C0.44,-0.001 0.42,-0 0.403,-0C0.39,-0 0.382,-0.001 0.378,-0.003C0.374,-0.004 0.372,-0.009 0.372,-0.017C0.372,-0.024 0.374,-0.028 0.378,-0.03C0.382,-0.031 0.388,-0.032 0.396,-0.032C0.409,-0.032 0.42,-0.032 0.431,-0.032C0.441,-0.031 0.449,-0.031 0.455,-0.031C0.457,-0.031 0.459,-0.032 0.462,-0.035C0.464,-0.037 0.465,-0.039 0.465,-0.041L0.465,-0.308C0.465,-0.317 0.465,-0.328 0.465,-0.34C0.464,-0.351 0.464,-0.363 0.463,-0.374C0.462,-0.385 0.46,-0.396 0.458,-0.407C0.456,-0.417 0.453,-0.426 0.449,-0.433C0.438,-0.452 0.424,-0.466 0.407,-0.474C0.39,-0.482 0.372,-0.486 0.353,-0.486C0.336,-0.486 0.322,-0.485 0.311,-0.482C0.3,-0.479 0.288,-0.473 0.275,-0.464C0.254,-0.449 0.238,-0.432 0.227,-0.415C0.216,-0.397 0.21,-0.376 0.21,-0.353L0.21,-0.054C0.21,-0.05 0.211,-0.046 0.212,-0.043C0.213,-0.039 0.214,-0.036 0.216,-0.033C0.217,-0.03 0.22,-0.029 0.223,-0.029L0.287,-0.029C0.293,-0.029 0.298,-0.028 0.303,-0.025C0.307,-0.022 0.309,-0.018 0.309,-0.012C0.309,-0.007 0.308,-0.004 0.306,-0.003C0.303,-0.001 0.299,0.001 0.294,0.002L0.253,0.002C0.234,0.002 0.212,0.002 0.189,0.001C0.165,0 0.146,-0 0.131,-0C0.116,-0 0.101,0.001 0.088,0.003C0.074,0.004 0.061,0.005 0.048,0.005L0.025,0.005C0.022,0.005 0.02,0.003 0.019,-0C0.018,-0.003 0.017,-0.007 0.017,-0.012Z" style="fill-rule:nonzero;"/>
            </g>
            <g transform="matrix(416.667,0,0,416.667,955.384,1269.24)">
                <path d="M0.551,-0.37L0.151,-0.37C0.147,-0.369 0.145,-0.367 0.144,-0.366C0.143,-0.364 0.142,-0.36 0.141,-0.355C0.14,-0.352 0.14,-0.344 0.139,-0.333C0.138,-0.321 0.138,-0.308 0.138,-0.293C0.138,-0.278 0.14,-0.264 0.144,-0.251C0.147,-0.238 0.151,-0.224 0.155,-0.211C0.171,-0.163 0.196,-0.127 0.231,-0.102C0.265,-0.077 0.31,-0.064 0.367,-0.064C0.376,-0.064 0.385,-0.066 0.395,-0.069C0.405,-0.071 0.415,-0.076 0.425,-0.081C0.435,-0.086 0.444,-0.091 0.454,-0.098C0.463,-0.104 0.471,-0.111 0.478,-0.118C0.483,-0.123 0.488,-0.128 0.491,-0.134C0.494,-0.14 0.498,-0.147 0.503,-0.156C0.504,-0.157 0.507,-0.159 0.51,-0.16C0.513,-0.161 0.515,-0.161 0.516,-0.161C0.523,-0.161 0.528,-0.159 0.531,-0.155C0.533,-0.15 0.534,-0.145 0.534,-0.138C0.534,-0.134 0.532,-0.128 0.528,-0.12C0.523,-0.112 0.52,-0.106 0.517,-0.103C0.502,-0.081 0.483,-0.062 0.461,-0.045C0.439,-0.028 0.412,-0.015 0.381,-0.004C0.374,-0.002 0.362,-0 0.345,0.001C0.328,0.002 0.31,0.003 0.291,0.003C0.274,0.003 0.256,0.001 0.238,-0.004C0.219,-0.009 0.201,-0.015 0.184,-0.024C0.167,-0.032 0.151,-0.042 0.136,-0.053C0.121,-0.064 0.109,-0.077 0.099,-0.09C0.078,-0.119 0.062,-0.148 0.053,-0.177C0.043,-0.206 0.038,-0.239 0.038,-0.275C0.038,-0.302 0.041,-0.326 0.047,-0.347C0.053,-0.368 0.063,-0.391 0.078,-0.414C0.103,-0.457 0.136,-0.491 0.175,-0.518C0.214,-0.545 0.26,-0.558 0.312,-0.558C0.334,-0.558 0.357,-0.556 0.381,-0.552C0.405,-0.547 0.428,-0.537 0.449,-0.522C0.456,-0.517 0.465,-0.509 0.478,-0.499C0.49,-0.488 0.502,-0.476 0.514,-0.464C0.526,-0.451 0.537,-0.437 0.546,-0.423C0.555,-0.408 0.559,-0.395 0.559,-0.382C0.559,-0.374 0.556,-0.37 0.551,-0.37ZM0.166,-0.401L0.423,-0.401C0.43,-0.401 0.434,-0.402 0.435,-0.404C0.436,-0.406 0.437,-0.408 0.437,-0.409C0.437,-0.418 0.435,-0.427 0.431,-0.437C0.426,-0.446 0.421,-0.455 0.415,-0.464C0.408,-0.473 0.402,-0.481 0.395,-0.488C0.388,-0.495 0.383,-0.5 0.378,-0.504C0.365,-0.515 0.353,-0.522 0.341,-0.525C0.328,-0.528 0.314,-0.529 0.299,-0.529C0.286,-0.529 0.274,-0.529 0.265,-0.528C0.255,-0.527 0.243,-0.523 0.23,-0.517C0.223,-0.514 0.215,-0.508 0.206,-0.501C0.197,-0.493 0.189,-0.484 0.182,-0.474C0.174,-0.464 0.168,-0.453 0.163,-0.442C0.158,-0.431 0.155,-0.419 0.155,-0.408C0.155,-0.403 0.159,-0.401 0.166,-0.401Z" style="fill-rule:nonzero;"/>
            </g>
            <g transform="matrix(416.667,0,0,416.667,1313.72,1269.24)">
                <path d="M0.033,-0.828L0.227,-0.828C0.242,-0.828 0.256,-0.829 0.269,-0.83C0.282,-0.831 0.296,-0.832 0.312,-0.833C0.327,-0.834 0.346,-0.836 0.368,-0.837C0.39,-0.838 0.418,-0.838 0.452,-0.838C0.491,-0.838 0.524,-0.833 0.553,-0.822C0.582,-0.811 0.605,-0.796 0.624,-0.778C0.642,-0.759 0.656,-0.738 0.665,-0.715C0.674,-0.692 0.678,-0.668 0.678,-0.643C0.678,-0.615 0.675,-0.591 0.668,-0.571C0.661,-0.55 0.651,-0.532 0.638,-0.517C0.624,-0.502 0.609,-0.488 0.59,-0.477C0.571,-0.465 0.55,-0.454 0.526,-0.443C0.525,-0.443 0.524,-0.443 0.523,-0.442C0.521,-0.441 0.52,-0.441 0.52,-0.44C0.52,-0.439 0.522,-0.437 0.526,-0.436C0.589,-0.413 0.635,-0.383 0.665,-0.347C0.694,-0.311 0.709,-0.263 0.709,-0.202C0.709,-0.19 0.707,-0.177 0.704,-0.164C0.7,-0.151 0.695,-0.137 0.688,-0.124C0.681,-0.111 0.672,-0.098 0.663,-0.086C0.653,-0.073 0.642,-0.062 0.631,-0.053C0.608,-0.034 0.576,-0.02 0.536,-0.011C0.496,-0.002 0.448,0.002 0.392,0.002C0.367,0.002 0.343,0.002 0.32,0.001C0.297,0 0.268,-0 0.234,-0C0.2,-0 0.168,0.001 0.139,0.002C0.11,0.003 0.077,0.003 0.04,0.004C0.04,0.001 0.041,-0.003 0.042,-0.008C0.043,-0.013 0.046,-0.016 0.049,-0.018C0.061,-0.023 0.074,-0.027 0.087,-0.029C0.1,-0.03 0.113,-0.033 0.125,-0.037C0.136,-0.04 0.146,-0.046 0.153,-0.055C0.16,-0.063 0.164,-0.076 0.164,-0.094L0.164,-0.744C0.164,-0.753 0.163,-0.763 0.162,-0.772C0.161,-0.781 0.156,-0.788 0.147,-0.793C0.142,-0.796 0.136,-0.798 0.13,-0.799C0.123,-0.8 0.116,-0.801 0.107,-0.802C0.098,-0.803 0.089,-0.804 0.078,-0.806C0.067,-0.807 0.055,-0.81 0.04,-0.814C0.035,-0.815 0.033,-0.817 0.033,-0.821L0.033,-0.828ZM0.285,-0.396L0.285,-0.079C0.3,-0.062 0.317,-0.048 0.334,-0.038C0.35,-0.027 0.371,-0.022 0.394,-0.022C0.421,-0.022 0.445,-0.028 0.466,-0.041C0.487,-0.053 0.504,-0.069 0.518,-0.088C0.531,-0.107 0.542,-0.129 0.549,-0.153C0.556,-0.177 0.559,-0.201 0.559,-0.224C0.559,-0.251 0.554,-0.277 0.544,-0.301C0.533,-0.324 0.519,-0.345 0.502,-0.362C0.484,-0.379 0.463,-0.393 0.44,-0.403C0.417,-0.413 0.392,-0.418 0.366,-0.418L0.333,-0.418C0.326,-0.418 0.316,-0.418 0.304,-0.417C0.291,-0.417 0.285,-0.41 0.285,-0.396ZM0.285,-0.808L0.285,-0.457C0.285,-0.448 0.289,-0.443 0.296,-0.44C0.303,-0.437 0.309,-0.436 0.313,-0.436C0.343,-0.436 0.369,-0.439 0.391,-0.445C0.412,-0.451 0.43,-0.459 0.445,-0.468C0.456,-0.475 0.466,-0.483 0.477,-0.494C0.487,-0.504 0.496,-0.516 0.504,-0.529C0.512,-0.542 0.518,-0.557 0.523,-0.574C0.528,-0.59 0.53,-0.607 0.53,-0.625C0.53,-0.675 0.522,-0.714 0.505,-0.743C0.488,-0.771 0.462,-0.791 0.425,-0.802C0.41,-0.807 0.395,-0.81 0.378,-0.812C0.361,-0.813 0.343,-0.814 0.323,-0.814C0.308,-0.814 0.296,-0.812 0.285,-0.808Z" style="fill-rule:nonzero;"/>
            </g>
            <g transform="matrix(416.667,0,0,416.667,1622.88,1269.24)">
                <path d="M0.319,-0.083L0.316,-0.081C0.316,-0.081 0.313,-0.078 0.307,-0.073C0.301,-0.067 0.294,-0.061 0.287,-0.054C0.28,-0.047 0.273,-0.041 0.266,-0.036C0.259,-0.03 0.255,-0.027 0.254,-0.026C0.241,-0.019 0.227,-0.012 0.212,-0.006C0.196,0 0.178,0.003 0.159,0.003C0.145,0.003 0.131,0.001 0.118,-0.003C0.104,-0.006 0.092,-0.013 0.081,-0.023C0.07,-0.032 0.061,-0.045 0.054,-0.061C0.047,-0.077 0.044,-0.097 0.044,-0.121C0.044,-0.13 0.046,-0.141 0.051,-0.155C0.055,-0.168 0.062,-0.181 0.073,-0.192C0.095,-0.217 0.121,-0.235 0.152,-0.247C0.182,-0.259 0.22,-0.271 0.266,-0.282C0.277,-0.285 0.289,-0.288 0.301,-0.291C0.313,-0.294 0.32,-0.297 0.323,-0.299C0.325,-0.3 0.327,-0.302 0.329,-0.303C0.33,-0.304 0.331,-0.307 0.332,-0.311C0.335,-0.328 0.338,-0.348 0.34,-0.369C0.341,-0.39 0.342,-0.408 0.342,-0.423C0.342,-0.438 0.339,-0.452 0.334,-0.466C0.328,-0.478 0.32,-0.49 0.31,-0.5C0.3,-0.509 0.289,-0.517 0.276,-0.522C0.263,-0.527 0.249,-0.53 0.234,-0.53C0.222,-0.53 0.21,-0.527 0.198,-0.522C0.185,-0.516 0.174,-0.509 0.164,-0.5C0.154,-0.491 0.146,-0.48 0.139,-0.468C0.132,-0.456 0.129,-0.444 0.129,-0.432C0.129,-0.426 0.131,-0.421 0.134,-0.418C0.137,-0.415 0.14,-0.411 0.144,-0.408C0.147,-0.405 0.151,-0.401 0.154,-0.398C0.157,-0.394 0.158,-0.389 0.158,-0.382C0.158,-0.367 0.153,-0.355 0.143,-0.346C0.133,-0.337 0.121,-0.332 0.106,-0.332C0.089,-0.332 0.075,-0.339 0.065,-0.352C0.055,-0.365 0.05,-0.379 0.05,-0.396C0.05,-0.404 0.052,-0.412 0.057,-0.421C0.061,-0.43 0.066,-0.438 0.072,-0.447C0.078,-0.456 0.084,-0.464 0.091,-0.471C0.098,-0.478 0.103,-0.484 0.108,-0.489C0.124,-0.504 0.141,-0.518 0.158,-0.529C0.165,-0.533 0.171,-0.536 0.178,-0.539C0.185,-0.542 0.191,-0.544 0.198,-0.546C0.206,-0.549 0.219,-0.553 0.237,-0.558C0.254,-0.563 0.272,-0.565 0.289,-0.565C0.307,-0.565 0.325,-0.563 0.343,-0.558C0.36,-0.553 0.376,-0.545 0.39,-0.534C0.403,-0.523 0.414,-0.509 0.423,-0.492C0.431,-0.475 0.435,-0.455 0.435,-0.431C0.435,-0.405 0.434,-0.378 0.431,-0.351C0.428,-0.324 0.425,-0.298 0.422,-0.273C0.419,-0.248 0.416,-0.225 0.413,-0.204C0.41,-0.183 0.409,-0.166 0.409,-0.153C0.409,-0.146 0.41,-0.138 0.411,-0.129C0.412,-0.119 0.415,-0.11 0.418,-0.101C0.421,-0.092 0.426,-0.084 0.432,-0.077C0.437,-0.07 0.445,-0.067 0.454,-0.067C0.465,-0.067 0.475,-0.07 0.485,-0.075C0.495,-0.08 0.504,-0.086 0.513,-0.094C0.521,-0.101 0.529,-0.11 0.536,-0.119C0.543,-0.128 0.548,-0.137 0.552,-0.146C0.553,-0.147 0.554,-0.149 0.555,-0.151C0.556,-0.153 0.557,-0.154 0.559,-0.154C0.56,-0.154 0.561,-0.153 0.561,-0.15L0.561,-0.144C0.561,-0.127 0.558,-0.11 0.552,-0.093C0.545,-0.076 0.536,-0.06 0.524,-0.046C0.512,-0.032 0.497,-0.021 0.479,-0.012C0.461,-0.003 0.441,0.002 0.418,0.002C0.413,0.002 0.408,0.002 0.403,0.001C0.398,0 0.392,-0.001 0.387,-0.003C0.367,-0.013 0.353,-0.025 0.345,-0.038C0.337,-0.051 0.328,-0.066 0.319,-0.083ZM0.136,-0.104C0.136,-0.085 0.143,-0.071 0.157,-0.062C0.171,-0.053 0.186,-0.049 0.203,-0.049C0.223,-0.049 0.242,-0.053 0.259,-0.061C0.276,-0.068 0.291,-0.076 0.302,-0.084C0.311,-0.092 0.316,-0.101 0.316,-0.11C0.316,-0.139 0.318,-0.166 0.322,-0.191C0.325,-0.216 0.327,-0.24 0.327,-0.265C0.327,-0.268 0.327,-0.271 0.327,-0.274C0.326,-0.277 0.324,-0.278 0.321,-0.278C0.315,-0.278 0.309,-0.277 0.302,-0.274C0.285,-0.268 0.268,-0.261 0.252,-0.254C0.235,-0.247 0.219,-0.239 0.204,-0.231C0.193,-0.225 0.184,-0.217 0.176,-0.208C0.167,-0.198 0.16,-0.187 0.154,-0.176C0.148,-0.165 0.143,-0.153 0.141,-0.14C0.138,-0.127 0.136,-0.115 0.136,-0.104Z" style="fill-rule:nonzero;"/>
            </g>
            <g transform="matrix(416.667,0,0,416.667,1861.63,1269.24)">
                <path d="M0.044,-0.083C0.044,-0.094 0.046,-0.104 0.051,-0.114C0.056,-0.124 0.059,-0.134 0.062,-0.143C0.062,-0.145 0.063,-0.148 0.064,-0.153C0.065,-0.158 0.07,-0.178 0.071,-0.183C0.072,-0.188 0.072,-0.191 0.073,-0.193C0.074,-0.198 0.076,-0.201 0.081,-0.201C0.087,-0.201 0.09,-0.197 0.091,-0.19C0.092,-0.185 0.092,-0.18 0.092,-0.175C0.091,-0.17 0.092,-0.165 0.093,-0.158C0.096,-0.14 0.101,-0.123 0.108,-0.107C0.115,-0.09 0.123,-0.076 0.133,-0.064C0.143,-0.052 0.155,-0.042 0.17,-0.035C0.185,-0.028 0.202,-0.024 0.221,-0.024C0.235,-0.024 0.249,-0.026 0.262,-0.031C0.275,-0.035 0.287,-0.041 0.297,-0.05C0.307,-0.058 0.315,-0.068 0.321,-0.08C0.327,-0.091 0.33,-0.105 0.33,-0.12C0.33,-0.151 0.323,-0.175 0.309,-0.193C0.295,-0.21 0.277,-0.223 0.256,-0.233C0.235,-0.243 0.212,-0.252 0.187,-0.259C0.162,-0.266 0.139,-0.275 0.118,-0.287C0.097,-0.298 0.079,-0.314 0.065,-0.334C0.051,-0.354 0.044,-0.382 0.044,-0.418C0.044,-0.435 0.047,-0.449 0.053,-0.461C0.058,-0.473 0.063,-0.483 0.068,-0.49C0.08,-0.508 0.098,-0.525 0.121,-0.542C0.144,-0.558 0.173,-0.566 0.207,-0.566C0.222,-0.566 0.239,-0.563 0.256,-0.557C0.273,-0.551 0.289,-0.543 0.302,-0.532C0.306,-0.529 0.31,-0.525 0.315,-0.521C0.319,-0.516 0.323,-0.514 0.327,-0.514C0.332,-0.514 0.337,-0.516 0.341,-0.52C0.344,-0.523 0.348,-0.528 0.351,-0.534C0.352,-0.535 0.354,-0.536 0.356,-0.536C0.358,-0.536 0.36,-0.533 0.361,-0.526C0.362,-0.519 0.362,-0.515 0.362,-0.513C0.362,-0.511 0.361,-0.503 0.359,-0.491C0.357,-0.478 0.354,-0.464 0.351,-0.449C0.348,-0.434 0.344,-0.42 0.34,-0.408C0.336,-0.396 0.332,-0.39 0.329,-0.39L0.327,-0.39C0.325,-0.39 0.324,-0.391 0.324,-0.393C0.318,-0.404 0.315,-0.412 0.315,-0.418C0.315,-0.424 0.314,-0.432 0.312,-0.441C0.311,-0.446 0.31,-0.452 0.307,-0.458C0.302,-0.471 0.296,-0.481 0.291,-0.489C0.286,-0.497 0.278,-0.505 0.269,-0.514C0.262,-0.521 0.257,-0.526 0.252,-0.53C0.247,-0.533 0.241,-0.536 0.235,-0.538C0.229,-0.539 0.222,-0.54 0.215,-0.541C0.207,-0.541 0.197,-0.541 0.186,-0.541C0.175,-0.541 0.166,-0.539 0.157,-0.534C0.148,-0.529 0.14,-0.522 0.133,-0.514C0.126,-0.506 0.121,-0.497 0.118,-0.486C0.114,-0.475 0.112,-0.464 0.112,-0.453C0.112,-0.428 0.119,-0.408 0.134,-0.395C0.148,-0.381 0.166,-0.37 0.187,-0.361C0.208,-0.352 0.232,-0.344 0.257,-0.337C0.282,-0.329 0.306,-0.318 0.327,-0.305C0.348,-0.292 0.366,-0.274 0.381,-0.251C0.395,-0.228 0.402,-0.198 0.402,-0.159C0.402,-0.14 0.397,-0.12 0.387,-0.101C0.377,-0.082 0.365,-0.063 0.35,-0.046C0.343,-0.039 0.335,-0.032 0.324,-0.026C0.313,-0.019 0.3,-0.014 0.287,-0.009C0.274,-0.004 0.26,-0.001 0.246,0.002C0.231,0.005 0.217,0.006 0.203,0.006C0.189,0.006 0.173,0.003 0.155,-0.004C0.137,-0.01 0.12,-0.018 0.103,-0.027C0.086,-0.035 0.072,-0.045 0.061,-0.056C0.05,-0.066 0.044,-0.075 0.044,-0.083Z" style="fill-rule:nonzero;"/>
            </g>
            <g transform="matrix(416.667,0,0,416.667,2041.63,1269.24)">
                <path d="M0.036,-0.011C0.036,-0.013 0.036,-0.016 0.037,-0.02C0.038,-0.024 0.04,-0.026 0.044,-0.026L0.111,-0.026C0.114,-0.026 0.118,-0.027 0.122,-0.03C0.126,-0.032 0.128,-0.035 0.128,-0.039L0.128,-0.381C0.128,-0.399 0.127,-0.415 0.126,-0.428C0.125,-0.441 0.121,-0.452 0.115,-0.459C0.112,-0.463 0.11,-0.466 0.107,-0.467C0.104,-0.468 0.102,-0.469 0.101,-0.47C0.096,-0.471 0.091,-0.472 0.088,-0.472L0.076,-0.472C0.068,-0.472 0.059,-0.472 0.048,-0.472C0.037,-0.471 0.028,-0.471 0.021,-0.47C0.02,-0.47 0.018,-0.47 0.016,-0.471C0.014,-0.472 0.013,-0.473 0.013,-0.474C0.013,-0.478 0.014,-0.481 0.016,-0.482C0.017,-0.483 0.019,-0.484 0.022,-0.485C0.037,-0.49 0.054,-0.495 0.072,-0.498C0.089,-0.501 0.106,-0.505 0.122,-0.51C0.123,-0.51 0.126,-0.511 0.13,-0.512C0.134,-0.513 0.138,-0.515 0.143,-0.517C0.147,-0.518 0.151,-0.52 0.156,-0.521C0.16,-0.522 0.163,-0.523 0.165,-0.524C0.175,-0.527 0.185,-0.532 0.196,-0.539C0.207,-0.546 0.217,-0.549 0.228,-0.549C0.229,-0.549 0.231,-0.548 0.233,-0.546C0.235,-0.544 0.236,-0.541 0.236,-0.538L0.236,-0.163C0.236,-0.149 0.236,-0.138 0.235,-0.129C0.234,-0.12 0.234,-0.111 0.233,-0.104C0.232,-0.097 0.232,-0.089 0.231,-0.082C0.23,-0.074 0.23,-0.065 0.23,-0.054C0.23,-0.043 0.231,-0.035 0.234,-0.032C0.236,-0.028 0.243,-0.026 0.256,-0.026C0.26,-0.026 0.267,-0.027 0.276,-0.028C0.284,-0.029 0.292,-0.029 0.298,-0.029C0.305,-0.029 0.312,-0.028 0.319,-0.025C0.326,-0.022 0.33,-0.017 0.33,-0.008C0.33,-0.001 0.327,0.002 0.322,0.002C0.294,0.002 0.269,0.002 0.246,0.001C0.223,0 0.202,-0 0.182,-0C0.148,-0 0.12,0.002 0.099,0.005C0.078,0.008 0.063,0.009 0.054,0.009C0.042,0.009 0.036,0.002 0.036,-0.011ZM0.115,-0.769C0.115,-0.79 0.122,-0.806 0.136,-0.815C0.15,-0.824 0.166,-0.828 0.185,-0.828C0.202,-0.828 0.217,-0.822 0.23,-0.811C0.242,-0.799 0.248,-0.785 0.248,-0.768C0.248,-0.747 0.242,-0.732 0.229,-0.723C0.216,-0.714 0.199,-0.71 0.18,-0.71C0.16,-0.71 0.144,-0.715 0.133,-0.724C0.121,-0.732 0.115,-0.748 0.115,-0.769Z" style="fill-rule:nonzero;"/>
            </g>
            <g transform="matrix(416.667,0,0,416.667,2175.38,1269.24)">
                <path d="M0.252,-0.081C0.263,-0.075 0.273,-0.07 0.284,-0.067C0.294,-0.064 0.308,-0.062 0.326,-0.062C0.339,-0.062 0.353,-0.065 0.367,-0.072C0.381,-0.079 0.394,-0.087 0.407,-0.097C0.42,-0.106 0.431,-0.117 0.441,-0.129C0.451,-0.14 0.459,-0.151 0.464,-0.161C0.467,-0.168 0.473,-0.173 0.482,-0.174C0.485,-0.172 0.486,-0.17 0.487,-0.167C0.487,-0.164 0.487,-0.162 0.487,-0.159C0.487,-0.146 0.484,-0.133 0.477,-0.121C0.47,-0.109 0.462,-0.098 0.454,-0.087C0.43,-0.057 0.404,-0.034 0.377,-0.019C0.349,-0.004 0.314,0.004 0.273,0.004C0.236,0.004 0.204,-0.004 0.175,-0.021C0.146,-0.037 0.122,-0.058 0.103,-0.085C0.083,-0.112 0.068,-0.142 0.058,-0.175C0.047,-0.208 0.042,-0.242 0.042,-0.275C0.042,-0.311 0.048,-0.347 0.06,-0.382C0.071,-0.417 0.088,-0.448 0.11,-0.475C0.132,-0.502 0.159,-0.523 0.191,-0.54C0.222,-0.557 0.258,-0.565 0.298,-0.565C0.313,-0.565 0.328,-0.564 0.344,-0.562C0.36,-0.56 0.375,-0.556 0.39,-0.551C0.405,-0.546 0.418,-0.539 0.431,-0.53C0.444,-0.521 0.455,-0.509 0.464,-0.496C0.471,-0.487 0.477,-0.479 0.482,-0.473C0.487,-0.466 0.49,-0.457 0.49,-0.446C0.49,-0.431 0.485,-0.42 0.474,-0.412C0.463,-0.404 0.451,-0.4 0.438,-0.4C0.424,-0.4 0.413,-0.407 0.406,-0.422C0.399,-0.436 0.391,-0.452 0.382,-0.469C0.373,-0.486 0.36,-0.501 0.344,-0.516C0.327,-0.53 0.303,-0.537 0.271,-0.537C0.259,-0.537 0.247,-0.535 0.236,-0.531C0.225,-0.526 0.214,-0.52 0.204,-0.513C0.194,-0.505 0.185,-0.496 0.178,-0.487C0.17,-0.477 0.164,-0.467 0.159,-0.457C0.15,-0.436 0.145,-0.414 0.144,-0.392C0.143,-0.37 0.142,-0.348 0.142,-0.326C0.142,-0.302 0.144,-0.278 0.147,-0.255C0.15,-0.231 0.156,-0.208 0.165,-0.187C0.173,-0.166 0.184,-0.146 0.198,-0.128C0.212,-0.11 0.23,-0.094 0.252,-0.081Z" style="fill-rule:nonzero;"/>
            </g>
        </g>
    </g>
</svg>
