<?xml version="1.0" encoding="UTF-8" standalone="no"?>
<!DOCTYPE svg PUBLIC "-//W3C//DTD SVG 1.1//EN" "http://www.w3.org/Graphics/SVG/1.1/DTD/svg11.dtd">
<svg width="100%" height="100%" viewBox="0 0 2060 156" version="1.1" xmlns="http://www.w3.org/2000/svg" xmlns:xlink="http://www.w3.org/1999/xlink" xml:space="preserve" xmlns:serif="http://www.serif.com/" style="fill-rule:evenodd;clip-rule:evenodd;stroke-linejoin:round;stroke-miterlimit:2;">
    <g transform="matrix(1,0,0,1,-201.357,-268.45)">
        <g transform="matrix(1,0,0,1,203.98,285.049)">
            <g transform="matrix(875.153,0,0,212.5,0,150.28)">
                <path d="M0.248,-0.309C0.249,-0.31 0.249,-0.312 0.249,-0.312C0.246,-0.314 0.244,-0.316 0.24,-0.318C0.214,-0.332 0.187,-0.34 0.157,-0.342C0.122,-0.345 0.086,-0.344 0.053,-0.33C-0.004,-0.307 -0.019,-0.257 0.015,-0.207C0.032,-0.181 0.054,-0.161 0.078,-0.143C0.164,-0.08 0.261,-0.05 0.367,-0.054C0.404,-0.055 0.441,-0.061 0.474,-0.079C0.515,-0.102 0.536,-0.136 0.532,-0.184C0.531,-0.197 0.529,-0.209 0.524,-0.223C0.514,-0.26 0.495,-0.295 0.474,-0.327C0.452,-0.362 0.43,-0.395 0.409,-0.429C0.394,-0.453 0.383,-0.477 0.377,-0.505C0.368,-0.543 0.377,-0.574 0.407,-0.6C0.416,-0.608 0.427,-0.616 0.438,-0.622C0.495,-0.654 0.557,-0.67 0.622,-0.672C0.637,-0.672 0.652,-0.67 0.667,-0.666C0.692,-0.662 0.704,-0.644 0.705,-0.62C0.707,-0.601 0.703,-0.584 0.693,-0.568C0.679,-0.545 0.664,-0.523 0.646,-0.502C0.62,-0.473 0.591,-0.445 0.563,-0.417C0.561,-0.414 0.555,-0.411 0.558,-0.404C0.571,-0.404 0.579,-0.412 0.587,-0.42C0.616,-0.446 0.646,-0.475 0.673,-0.504C0.688,-0.518 0.701,-0.538 0.712,-0.555C0.725,-0.576 0.731,-0.6 0.729,-0.624C0.727,-0.657 0.71,-0.678 0.679,-0.688C0.667,-0.693 0.653,-0.694 0.641,-0.694C0.572,-0.698 0.508,-0.682 0.446,-0.654C0.423,-0.643 0.401,-0.629 0.383,-0.61C0.353,-0.579 0.343,-0.543 0.353,-0.5C0.363,-0.454 0.389,-0.414 0.414,-0.375C0.435,-0.34 0.457,-0.307 0.478,-0.273C0.492,-0.25 0.501,-0.226 0.505,-0.199C0.512,-0.155 0.503,-0.122 0.453,-0.098C0.452,-0.097 0.451,-0.097 0.449,-0.097C0.424,-0.086 0.399,-0.081 0.373,-0.08C0.305,-0.076 0.241,-0.088 0.179,-0.115C0.133,-0.136 0.09,-0.162 0.055,-0.198C0.042,-0.212 0.031,-0.225 0.026,-0.242C0.018,-0.265 0.024,-0.283 0.044,-0.296C0.06,-0.307 0.079,-0.314 0.098,-0.316C0.126,-0.318 0.155,-0.316 0.182,-0.314C0.204,-0.312 0.226,-0.311 0.248,-0.309Z" style="fill-rule:nonzero;"/>
            </g>
            <g transform="matrix(875.153,0,0,212.5,623.984,150.28)">
                <path d="M0.155,-0.407C0.153,-0.393 0.152,-0.383 0.151,-0.374C0.148,-0.358 0.145,-0.343 0.145,-0.328C0.145,-0.31 0.156,-0.3 0.174,-0.301C0.181,-0.301 0.187,-0.302 0.191,-0.304C0.218,-0.318 0.245,-0.33 0.271,-0.345C0.298,-0.358 0.297,-0.387 0.257,-0.37C0.238,-0.361 0.219,-0.349 0.2,-0.339C0.192,-0.336 0.183,-0.334 0.172,-0.329C0.174,-0.344 0.175,-0.354 0.178,-0.364C0.18,-0.375 0.183,-0.385 0.184,-0.395C0.187,-0.428 0.171,-0.441 0.141,-0.431C0.135,-0.429 0.127,-0.427 0.123,-0.423C0.104,-0.41 0.086,-0.396 0.069,-0.381C0.05,-0.364 0.031,-0.345 0.011,-0.327C0.007,-0.322 0.004,-0.317 -0.005,-0.317C0.011,-0.347 0.028,-0.375 0.045,-0.403C0.112,-0.511 0.21,-0.661 0.291,-0.76C0.306,-0.772 0.284,-0.797 0.268,-0.779C0.221,-0.729 0.15,-0.617 0.11,-0.558C0.051,-0.472 -0.002,-0.381 -0.051,-0.29C-0.056,-0.281 -0.06,-0.273 -0.061,-0.263C-0.064,-0.258 -0.061,-0.249 -0.057,-0.246C-0.054,-0.242 -0.046,-0.242 -0.039,-0.244C-0.033,-0.245 -0.028,-0.251 -0.023,-0.255C0.002,-0.28 0.028,-0.304 0.054,-0.329C0.079,-0.353 0.104,-0.379 0.133,-0.396C0.139,-0.4 0.145,-0.402 0.155,-0.407Z" style="fill-rule:nonzero;"/>
            </g>
            <g transform="matrix(875.153,0,0,212.5,863.776,150.28)">
                <path d="M0.139,-0.375C0.138,-0.379 0.137,-0.384 0.136,-0.388C0.128,-0.411 0.112,-0.419 0.09,-0.41C0.082,-0.406 0.074,-0.402 0.066,-0.396C0.054,-0.388 0.031,-0.359 0.02,-0.352C0.021,-0.364 0.038,-0.394 0.043,-0.404C0.045,-0.41 0.048,-0.416 0.05,-0.423C0.05,-0.428 0.046,-0.434 0.043,-0.435C0.039,-0.437 0.033,-0.434 0.029,-0.431C0.026,-0.429 0.024,-0.423 0.023,-0.419C0.006,-0.388 -0.009,-0.359 -0.024,-0.329C-0.028,-0.323 -0.03,-0.319 -0.031,-0.313C-0.033,-0.3 -0.024,-0.293 -0.012,-0.297C-0.005,-0.301 0,-0.306 0.006,-0.311C0.032,-0.332 0.06,-0.366 0.086,-0.386C0.11,-0.403 0.103,-0.391 0.112,-0.369C0.119,-0.348 0.132,-0.34 0.153,-0.346C0.163,-0.348 0.174,-0.352 0.183,-0.358C0.21,-0.373 0.243,-0.397 0.27,-0.412C0.297,-0.43 0.293,-0.415 0.293,-0.387C0.293,-0.379 0.292,-0.373 0.292,-0.365C0.293,-0.33 0.311,-0.313 0.347,-0.317C0.376,-0.32 0.402,-0.332 0.427,-0.346C0.443,-0.352 0.445,-0.363 0.441,-0.369C0.438,-0.374 0.432,-0.375 0.416,-0.37C0.399,-0.364 0.375,-0.352 0.357,-0.348C0.331,-0.34 0.317,-0.347 0.32,-0.377C0.322,-0.389 0.322,-0.403 0.319,-0.415C0.316,-0.435 0.302,-0.443 0.283,-0.439C0.271,-0.437 0.258,-0.431 0.247,-0.425C0.219,-0.411 0.193,-0.395 0.165,-0.379C0.157,-0.375 0.149,-0.37 0.139,-0.375Z" style="fill-rule:nonzero;"/>
            </g>
            <g transform="matrix(875.153,0,0,212.5,1239.22,150.28)">
                <path d="M0.118,-0.367C0.122,-0.376 0.125,-0.382 0.128,-0.388C0.13,-0.4 0.136,-0.412 0.136,-0.422C0.137,-0.444 0.124,-0.454 0.102,-0.452C0.086,-0.451 0.075,-0.444 0.064,-0.436C0.038,-0.415 0.013,-0.394 -0.004,-0.367C-0.053,-0.289 -0.016,-0.265 0.02,-0.276C0.045,-0.284 0.059,-0.302 0.087,-0.328C0.092,-0.334 0.098,-0.337 0.105,-0.338C0.129,-0.343 0.154,-0.346 0.179,-0.351C0.192,-0.352 0.203,-0.354 0.216,-0.357C0.219,-0.357 0.226,-0.363 0.226,-0.365C0.227,-0.37 0.223,-0.376 0.219,-0.378C0.213,-0.38 0.211,-0.38 0.204,-0.38C0.192,-0.378 0.174,-0.376 0.163,-0.374C0.149,-0.371 0.134,-0.37 0.118,-0.367ZM0.022,-0.362C0.026,-0.343 0.04,-0.337 0.061,-0.337C0.035,-0.28 -0.024,-0.307 0.022,-0.362ZM0.107,-0.428C0.107,-0.42 0.109,-0.414 0.107,-0.412C0.103,-0.4 0.097,-0.386 0.089,-0.375C0.084,-0.364 0.066,-0.363 0.058,-0.371C0.051,-0.376 0.052,-0.382 0.055,-0.387C0.066,-0.406 0.082,-0.42 0.107,-0.428Z" style="fill-rule:nonzero;"/>
            </g>
            <g transform="matrix(875.153,0,0,212.5,1421.25,150.28)">
                <path d="M0.016,-0.407C0.014,-0.402 0.013,-0.399 0.011,-0.395C-0.004,-0.367 -0.02,-0.338 -0.035,-0.309C-0.054,-0.267 -0.075,-0.226 -0.095,-0.184C-0.096,-0.18 -0.1,-0.176 -0.097,-0.173C-0.097,-0.168 -0.095,-0.161 -0.092,-0.16C-0.088,-0.157 -0.08,-0.159 -0.077,-0.16C-0.071,-0.162 -0.068,-0.168 -0.065,-0.172C-0.022,-0.228 0.028,-0.278 0.081,-0.327C0.09,-0.334 0.095,-0.335 0.105,-0.33C0.165,-0.304 0.223,-0.312 0.276,-0.345C0.288,-0.352 0.294,-0.361 0.296,-0.375C0.288,-0.374 0.282,-0.374 0.274,-0.371C0.265,-0.367 0.255,-0.362 0.246,-0.358C0.221,-0.346 0.197,-0.339 0.17,-0.341C0.153,-0.342 0.135,-0.343 0.119,-0.355C0.128,-0.36 0.135,-0.362 0.142,-0.367C0.167,-0.381 0.191,-0.394 0.218,-0.41C0.224,-0.413 0.23,-0.418 0.235,-0.424C0.24,-0.429 0.242,-0.435 0.237,-0.441C0.232,-0.445 0.227,-0.448 0.221,-0.448C0.213,-0.448 0.204,-0.445 0.198,-0.441C0.174,-0.426 0.15,-0.412 0.126,-0.397C0.109,-0.386 0.093,-0.374 0.069,-0.374C0.057,-0.374 0.051,-0.365 0.057,-0.354C0.057,-0.35 0.058,-0.348 0.06,-0.344C0.046,-0.323 -0.057,-0.214 -0.053,-0.221C-0.026,-0.272 0.038,-0.383 0.066,-0.433C0.071,-0.443 0.079,-0.452 0.088,-0.461C0.147,-0.513 0.199,-0.569 0.245,-0.632C0.254,-0.645 0.26,-0.66 0.266,-0.673C0.271,-0.681 0.268,-0.688 0.262,-0.694C0.256,-0.7 0.247,-0.7 0.24,-0.697C0.232,-0.693 0.223,-0.688 0.216,-0.683C0.19,-0.663 0.169,-0.639 0.15,-0.613C0.119,-0.568 0.088,-0.522 0.058,-0.477C0.048,-0.46 0.035,-0.445 0.017,-0.433C0.003,-0.422 0,-0.421 0.016,-0.407ZM0.109,-0.504C0.133,-0.548 0.205,-0.644 0.23,-0.656C0.259,-0.668 0.18,-0.571 0.109,-0.504Z" style="fill-rule:nonzero;"/>
            </g>
            <g transform="matrix(875.153,0,0,212.5,1671.54,150.28)">
                <path d="M0.199,-0.367C0.171,-0.341 0.046,-0.315 0.02,-0.341C0.011,-0.35 0.011,-0.361 0.031,-0.361C0.044,-0.361 0.058,-0.362 0.07,-0.365C0.086,-0.37 0.101,-0.376 0.114,-0.384C0.123,-0.389 0.127,-0.398 0.125,-0.408C0.123,-0.418 0.115,-0.424 0.105,-0.425C0.081,-0.425 0.054,-0.421 0.03,-0.41C0.008,-0.398 0.003,-0.391 -0.006,-0.365C-0.02,-0.311 0.035,-0.307 0.071,-0.309C0.124,-0.312 0.179,-0.325 0.228,-0.35C0.234,-0.353 0.237,-0.36 0.234,-0.367C0.23,-0.374 0.225,-0.375 0.217,-0.374C0.211,-0.372 0.205,-0.37 0.199,-0.367ZM0.098,-0.396C0.082,-0.381 0.043,-0.372 0.023,-0.374C0.056,-0.396 0.116,-0.419 0.098,-0.396Z" style="fill-rule:nonzero;"/>
            </g>
            <g transform="matrix(875.153,0,0,212.5,1858.83,150.28)">
                <path d="M0.17,-0.335C0.231,-0.332 0.242,-0.369 0.204,-0.366C0.197,-0.366 0.189,-0.365 0.183,-0.365C0.167,-0.364 0.162,-0.367 0.159,-0.382C0.157,-0.391 0.156,-0.401 0.153,-0.411C0.147,-0.43 0.134,-0.438 0.114,-0.433C0.105,-0.432 0.095,-0.428 0.087,-0.421C0.075,-0.413 0.064,-0.402 0.051,-0.392C0.049,-0.39 0.045,-0.387 0.041,-0.384C0.048,-0.403 0.056,-0.42 0.065,-0.437C0.067,-0.442 0.069,-0.448 0.069,-0.454C0.07,-0.458 0.067,-0.463 0.064,-0.465C0.061,-0.467 0.055,-0.465 0.053,-0.463C0.048,-0.458 0.043,-0.451 0.04,-0.445C0.015,-0.4 -0.009,-0.354 -0.034,-0.309C-0.036,-0.304 -0.04,-0.3 -0.04,-0.294C-0.04,-0.271 -0.012,-0.28 -0.003,-0.3C0.009,-0.323 0.028,-0.346 0.051,-0.365C0.066,-0.379 0.111,-0.427 0.128,-0.389C0.134,-0.366 0.138,-0.337 0.17,-0.335Z" style="fill-rule:nonzero;"/>
            </g>
        </g>
    </g>
</svg>
