<?xml version="1.0" standalone="no"?>
<!DOCTYPE svg PUBLIC "-//W3C//DTD SVG 1.1//EN" "http://www.w3.org/Graphics/SVG/1.1/DTD/svg11.dtd" >
<svg xmlns="http://www.w3.org/2000/svg" xmlns:xlink="http://www.w3.org/1999/xlink" version="1.1">
<metadata>
Created by FontForge 20201107 at Thu Oct  6 11:27:25 2022
 By Unknown
Copyright \(c\) 2022 by Khurasan. All rights reserved.
</metadata>
<defs>
<font id="Thesignature" horiz-adv-x="302" >
  <font-face 
    font-family="Thesignature"
    font-weight="400"
    font-stretch="normal"
    units-per-em="1000"
    panose-1="0 0 0 0 0 0 0 0 0 0"
    ascent="800"
    descent="-200"
    x-height="427"
    cap-height="750"
    bbox="-341.156 -184.689 1431.75 825.657"
    underline-thickness="50"
    underline-position="-100"
    stemh="31"
    unicode-range="U+000D-20AC"
  />
<missing-glyph horiz-adv-x="402" 
 />
    <glyph glyph-name=".notdef" horiz-adv-x="402" 
 />
    <glyph glyph-name="NULL" horiz-adv-x="0" 
 />
    <glyph glyph-name="CR" unicode="&#xd;" horiz-adv-x="402" 
 />
    <glyph glyph-name="space" unicode=" " horiz-adv-x="240" 
 />
    <glyph glyph-name="asciitilde" unicode="~" horiz-adv-x="334" 
d="M239 382c-15 -12 -37 -21 -52 -20c-14 1 -25 9 -35 19l-10 15c-10 13 -17 15 -30 6c-20 -12 -37 -28 -56 -42c-5 -3 -7 -8 -12 -10c-8 -6 -16 0 -14 10c1 5 4 12 9 17c19 21 41 38 67 52c23 11 41 6 56 -15c22 -29 29 -30 59 -7c31 21 45 -5 18 -25z" />
    <glyph glyph-name="currency" unicode="&#xa4;" horiz-adv-x="373" 
d="M216 324l-10 -8c14 -15 27 -30 41 -44l12 -17c1 -3 1 -10 -2 -13c-3 -1 -9 -1 -14 0c-2 0 -4 2 -6 3c-19 18 -38 36 -49 60c-37 -13 -75 -23 -115 -6l-30 -33c-10 -11 -19 -14 -25 -8c-5 5 -4 13 6 25c9 10 19 19 27 29c-14 49 -11 57 43 115c-12 8 -22 17 -34 25
c-2 3 -5 3 -7 5c-9 7 -11 16 -7 21c7 7 14 4 20 0c16 -10 30 -19 44 -29c7 -5 12 -6 21 -1c11 4 22 8 33 13c34 14 58 -1 79 -25l6 -6s1 0 3 -1c17 15 32 31 49 46c5 5 10 10 16 13c3 2 8 2 11 0c2 -3 4 -8 3 -11c-3 -7 -7 -15 -12 -20c-18 -19 -38 -38 -55 -57
c-4 -4 -8 -9 -9 -14c-4 -26 -19 -45 -39 -62zM74 339c9 -2 22 1 22 -15c0 -2 9 -5 15 -5c33 -1 64 8 90 30c9 8 16 18 21 28c9 14 7 30 -3 43c-9 11 -20 18 -36 15c-41 -8 -74 -29 -101 -62c-8 -10 -13 -21 -8 -34z" />
    <glyph glyph-name="grave" unicode="`" horiz-adv-x="271" 
d="M183 609c-2 -1 -3 -2 -5 -3c-38 17 -61 46 -80 82c-4 6 -4 13 2 20c3 -1 7 -1 8 -2c21 -26 44 -51 64 -76c5 -6 8 -14 11 -21z" />
    <glyph glyph-name="question" unicode="?" horiz-adv-x="577" 
d="M158 490c-8 -11 -16 -11 -25 -9c-29 6 -47 33 -43 63c3 21 14 39 27 55c52 57 112 104 185 130c45 16 91 25 139 10c47 -13 66 -48 57 -96c-6 -30 -22 -56 -38 -81c-33 -48 -71 -91 -113 -134c-63 -63 -125 -125 -188 -189c-17 -16 -31 -34 -45 -51
c-19 -28 -55 -50 -33 1c13 19 25 39 42 56c44 46 90 90 133 136c50 50 98 100 144 153c21 23 38 53 56 81c7 10 11 25 14 39c4 30 -8 48 -37 57c-28 9 -56 9 -87 2c-55 -12 -104 -39 -148 -75c-21 -18 -41 -38 -62 -58c-5 -7 -10 -15 -14 -24c-13 -24 -7 -41 17 -56
c6 -2 12 -7 19 -10zM86 63c0 -16 -13 -30 -28 -32c-13 0 -24 8 -24 22c-1 16 11 28 27 28c15 2 25 -6 25 -18z" />
    <glyph glyph-name="underscore" unicode="_" horiz-adv-x="407" 
d="M244 257l-192 -5c-14 0 -29 -1 -44 -1c-6 0 -14 0 -19 2s-8 8 -7 11c0 5 3 8 7 11c4 2 11 2 16 3c81 2 162 5 242 9c52 3 46 -27 -3 -30z" />
    <glyph glyph-name="bracketright" unicode="]" horiz-adv-x="267" 
d="M324 723c-29 -3 -53 -5 -78 -6c-10 0 -22 -1 -34 0c-5 0 -11 1 -15 3c-1 3 -4 9 -3 12c1 4 7 7 11 8l35 3c30 3 60 6 89 10c32 4 40 -6 24 -36c-22 -41 -45 -81 -68 -122c-100 -181 -93 -166 -195 -347l-95 -169c-7 -14 -19 -21 -34 -21c-20 1 -40 1 -59 1
c-9 0 -16 3 -16 13c0 9 10 15 18 16c5 1 12 1 18 1c5 0 11 -1 16 -1c29 -1 29 -2 45 25c61 111 122 222 186 333c65 118 23 40 89 157l54 94c3 8 6 15 12 26z" />
    <glyph glyph-name="backslash" unicode="\" horiz-adv-x="411" 
d="M61 788l23 -60c42 -111 82 -221 121 -333c38 -103 76 -204 109 -308c10 -29 16 -60 23 -91c2 -7 5 -17 -11 -21c-5 6 -8 14 -12 21l-67 205l-137 372c-20 57 -55 137 -76 196c-10 29 5 45 27 19z" />
    <glyph glyph-name="bracketleft" unicode="[" horiz-adv-x="200" 
d="M-102 91c13 -1 21 -2 30 -2c25 0 51 1 76 1c15 0 15 0 27 -10c-3 -11 -13 -14 -21 -17c-7 -2 -15 -4 -22 -4h-83c-5 0 -10 0 -15 1c-21 6 -28 17 -17 40c16 36 34 72 54 107l223 393c55 98 1 1 56 99l16 29c7 17 21 23 37 23h68c6 0 12 -2 16 -5c3 -2 5 -8 3 -12
c0 -4 -5 -8 -9 -9c-4 -2 -11 -2 -16 -2c-23 1 -45 1 -69 3v-1c-34 -65 -82 -143 -118 -208l-132 -232l-88 -161c-6 -10 -9 -19 -16 -33z" />
    <glyph glyph-name="Z" unicode="Z" horiz-adv-x="883" 
d="M864 651c-22 -1 -45 -2 -67 -3c-36 -3 -72 -5 -108 -8c-54 -2 -109 -7 -164 -11c-56 -3 -111 -8 -167 -11c-7 0 -13 1 -20 3c-6 1 -10 5 -9 14c5 1 11 3 16 3c91 8 181 16 271 23c51 4 104 6 156 8c40 3 80 5 120 7c5 1 12 1 16 -2c6 -2 13 -7 14 -12c1 -4 -3 -13 -8 -16
c-4 -6 -11 -8 -19 -12c-37 -16 -74 -31 -110 -49c-55 -27 -110 -55 -164 -85c-104 -57 -201 -125 -295 -194c-93 -67 -178 -143 -257 -224c-9 -10 -18 -20 -27 -29c-3 -4 -6 -8 -11 -15c13 -3 23 -2 33 0c43 5 86 11 127 15c85 10 169 20 253 29c83 9 165 15 248 20
c86 6 172 6 259 0c36 -4 72 -10 110 -17c11 -2 22 -6 32 -11c10 -3 16 -10 18 -20c-8 -4 -17 -3 -26 -1c-33 7 -67 14 -101 19c-30 4 -60 5 -89 6c-45 2 -90 2 -135 2c-48 -2 -95 -4 -144 -7c-58 -4 -116 -10 -173 -16c-70 -7 -139 -15 -208 -23c-63 -8 -125 -15 -188 -22
c-8 -1 -16 -1 -24 1c-20 2 -28 18 -16 33c13 17 27 34 42 49c96 103 205 191 319 272c84 60 170 116 259 166c68 37 136 71 207 101c11 4 21 9 30 14v3z" />
    <glyph glyph-name="Y" unicode="Y" horiz-adv-x="833" 
d="M-18 315c0 11 7 19 14 26c23 23 46 45 70 66c81 70 164 138 250 201c31 24 64 46 95 66c14 8 28 14 42 18c27 7 46 -6 45 -35c-1 -19 -5 -39 -10 -58c-14 -54 -29 -110 -44 -165c-7 -31 -14 -61 -13 -92c0 -4 0 -8 1 -12c3 -15 10 -21 25 -22c20 -1 37 8 54 17
c20 11 40 22 59 36c72 50 135 110 195 173c30 32 60 64 91 96c6 6 11 12 19 15c31 23 20 -10 8 -25c-32 -36 -65 -74 -96 -110c-53 -64 -105 -129 -153 -196c-65 -91 -128 -185 -185 -283c-150 -264 -120 -141 0 51c64 105 132 207 208 305c2 4 5 8 6 14
c-19 -15 -39 -31 -58 -45c-35 -27 -69 -50 -109 -66c-12 -4 -24 -6 -36 -7c-28 -3 -49 16 -52 44c-3 27 0 54 6 79c11 47 23 94 35 140c8 30 15 59 23 90c1 8 2 16 1 24c0 9 -4 13 -14 10c-7 -2 -14 -5 -21 -8c-34 -16 -64 -38 -95 -61c-89 -66 -176 -136 -260 -208
c-28 -25 -54 -48 -82 -73c-5 -5 -11 -11 -19 -5z" />
    <glyph glyph-name="X" unicode="X" horiz-adv-x="780" 
d="M440 634c-15 -17 -28 -35 -40 -54c-2 -3 -3 -6 -6 -8s-7 -4 -9 -3c-2 2 -4 6 -4 8c0 5 3 8 5 12c14 23 28 45 43 66c5 7 10 12 17 16c12 9 25 3 26 -12c1 -8 -1 -16 -3 -24c-9 -40 -19 -79 -28 -119c-4 -22 -7 -46 -11 -70c1 0 2 -1 4 -1c5 4 8 8 13 11
c72 69 147 132 231 184c39 24 79 46 125 57c43 12 108 -10 29 -20c-44 -6 -84 -25 -122 -48c-74 -44 -143 -96 -206 -155c-24 -21 -45 -42 -68 -63c-6 -5 -9 -12 -9 -20c-2 -88 9 -174 50 -255c39 -77 98 -133 177 -167c20 -8 107 -38 62 -38c-58 2 -107 26 -151 59
c-72 56 -119 128 -143 216c-13 49 -21 100 -21 150c0 4 0 8 -1 10c0 2 0 2 -2 5c-5 -5 -9 -9 -14 -13c-50 -51 -100 -103 -151 -154c-64 -64 -131 -123 -202 -179c-49 -41 -99 -81 -149 -120c-22 -17 -47 -31 -70 -45c-13 -7 -28 -11 -42 -10c-6 0 -14 1 -13 9
c0 3 5 10 9 10c50 11 88 44 127 75c72 59 146 119 218 181c83 72 160 152 236 231c15 16 32 32 47 49c5 4 8 11 9 18c5 67 21 132 38 198c1 3 1 6 1 9c1 1 0 2 -2 4z" />
    <glyph glyph-name="W" unicode="W" horiz-adv-x="1250" 
d="M769 627c-35 -15 -69 -31 -105 -43c-76 -28 -155 -54 -232 -78c-70 -22 -140 -44 -211 -64c-60 -13 -118 -27 -178 -40c-13 -4 -25 -4 -40 -4c-11 -2 -21 2 -27 19c6 3 11 9 17 9c135 18 266 60 396 103c92 26 183 58 275 90c35 13 71 30 106 46c6 4 15 6 23 7
c18 2 27 -12 19 -32c-2 -15 -9 -25 -14 -38c-35 -64 -70 -129 -104 -194c-41 -84 -83 -169 -123 -253c-17 -36 -31 -74 -48 -110c-2 -9 -4 -16 -6 -23c1 -2 4 -2 4 -4c7 5 15 11 22 18c38 43 77 85 112 127c78 98 154 198 231 297c39 48 78 95 117 143c7 8 14 15 21 20
c21 17 37 7 39 -24c0 -13 -3 -27 -5 -40c-11 -73 -23 -143 -36 -215c-9 -57 -17 -114 -24 -171c-2 -5 -3 -12 1 -20c4 8 10 18 15 27c44 79 87 159 132 237c55 95 114 185 183 267c21 25 42 50 65 73c6 8 15 13 24 15c4 0 11 -1 13 -5c1 -6 1 -13 0 -18
c-5 -7 -9 -14 -16 -22c-25 -26 -52 -53 -76 -84c-64 -77 -120 -165 -172 -257c-49 -84 -97 -173 -146 -260c-8 -15 -18 -30 -28 -45c-7 -11 -16 -16 -26 -12c-11 6 -12 20 -11 32c4 32 8 62 13 95c20 120 39 241 58 360c1 7 1 12 2 24c-9 -8 -16 -14 -21 -21
c-37 -47 -76 -95 -114 -143c-92 -119 -182 -241 -279 -351c-23 -27 -45 -50 -70 -73c-9 -9 -20 -14 -32 -20c-19 -5 -33 9 -31 33c1 13 5 27 9 40c21 48 41 99 63 148c64 136 133 270 203 402c6 8 10 18 15 28c-1 1 -2 2 -3 4z" />
    <glyph glyph-name="V" unicode="V" horiz-adv-x="506" 
d="M269 636c-14 -25 -29 -49 -43 -75c-37 -64 -69 -130 -98 -196c-35 -75 -66 -147 -92 -222c-8 -22 -14 -44 -19 -64c-1 -3 -2 -5 -2 -10c7 8 13 13 15 19c111 161 245 306 389 441c72 69 150 129 235 181c30 18 60 35 91 46c33 10 85 2 23 -20c-53 -16 -103 -46 -149 -78
c-122 -81 -225 -180 -325 -286c-62 -70 -127 -140 -183 -214c-31 -42 -60 -83 -88 -126c-6 -7 -11 -13 -16 -19c-12 -11 -26 -7 -26 8c-1 10 1 23 3 35c9 44 25 87 41 129c44 109 91 216 144 321c26 49 54 98 88 145c27 30 22 4 12 -15z" />
    <glyph glyph-name="U" unicode="U" horiz-adv-x="685" 
d="M336 727c6 -9 -2 -16 -6 -21c-15 -22 -29 -43 -45 -64c-46 -64 -87 -128 -126 -197c-37 -66 -72 -135 -108 -202c-20 -40 -37 -81 -46 -125c-3 -13 -5 -25 -3 -37c1 -23 12 -34 33 -29c15 1 33 6 47 14c44 22 82 52 119 82c123 104 236 216 341 339
c67 78 130 159 196 239c4 7 9 12 16 17c5 1 13 1 18 -1c2 -4 3 -10 2 -16c-2 -7 -5 -12 -7 -17c-74 -111 -137 -226 -198 -344c-46 -90 -91 -179 -124 -273c-16 -46 -30 -93 -32 -142c0 -40 -24 -7 -23 13c0 17 0 33 5 49c9 40 21 79 36 118c51 132 116 257 185 380
c7 15 16 31 21 45c-2 -2 -7 -4 -9 -8c-50 -58 -100 -117 -153 -173c-57 -61 -116 -119 -175 -174c-46 -43 -96 -81 -144 -119c-26 -20 -54 -40 -85 -50c-11 -3 -23 -6 -33 -9c-39 -4 -61 18 -62 59c0 27 6 54 16 81c18 60 46 117 76 172c37 69 79 137 119 204
c35 60 76 115 122 169c6 9 14 21 27 20z" />
    <glyph glyph-name="T" unicode="T" horiz-adv-x="474" 
d="M67 26c8 20 21 33 33 52c60 99 120 197 181 295c57 92 117 184 182 270c4 6 8 11 12 18c-3 1 -5 2 -7 2c-96 1 -190 2 -285 5c-59 1 -115 -6 -174 -5c-43 -2 -32 31 3 31c66 -1 134 -3 199 -4c59 -2 117 -3 175 -3c32 -1 63 -2 95 -2c11 -1 17 2 23 9c4 8 10 15 15 19
c4 3 11 4 15 2s4 -9 1 -13c-2 -5 -4 -9 -8 -15c5 -2 9 -2 12 -2c89 0 179 1 268 1c69 1 141 10 211 10c52 0 54 -33 1 -36c-50 -1 -107 3 -159 3h-339c-11 0 -16 -5 -21 -12c-44 -66 -89 -129 -132 -196c-70 -107 -136 -216 -204 -323c-24 -38 -45 -89 -68 -127
c-12 -19 -50 -17 -29 21z" />
    <glyph glyph-name="S" unicode="S" horiz-adv-x="713" 
d="M248 309c-22 2 -44 3 -66 5c-27 2 -56 4 -84 2c-19 -2 -38 -9 -54 -20c-20 -13 -26 -31 -18 -54c5 -17 16 -30 29 -44c35 -36 78 -62 124 -83c62 -27 126 -39 194 -35c26 1 51 6 76 17c2 0 3 0 4 1c50 24 59 57 52 101c-4 27 -13 51 -27 74c-21 34 -43 67 -64 102
c-25 39 -51 79 -61 125c-10 43 0 79 30 110c18 19 40 33 63 44c62 28 126 44 195 40c12 0 26 -1 38 -6c31 -10 48 -31 50 -64c2 -24 -4 -48 -17 -69c-11 -17 -24 -37 -39 -51c-27 -29 -57 -58 -86 -84c-8 -8 -16 -16 -29 -16c-3 7 3 10 5 13c28 28 57 56 83 85
c18 21 33 43 47 66c10 16 14 33 12 52c-1 24 -13 42 -38 46c-15 4 -30 6 -45 6c-65 -2 -127 -18 -184 -50c-11 -6 -22 -14 -31 -22c-30 -26 -39 -57 -30 -95c6 -28 17 -52 32 -76c21 -34 43 -67 65 -102c21 -32 40 -67 50 -104c5 -14 7 -26 8 -39c4 -48 -17 -82 -58 -105
c-33 -18 -70 -24 -107 -25c-106 -4 -203 26 -289 89c-24 18 -46 38 -63 64c-34 50 -19 100 38 123c33 14 69 15 104 12c30 -2 57 -10 83 -24c4 -2 6 -4 9 -6c0 0 0 -2 -1 -3z" />
    <glyph glyph-name="R" unicode="R" horiz-adv-x="775" 
d="M369 620c-14 -2 -23 -4 -31 -7c-57 -15 -114 -32 -170 -56c-26 -12 -52 -27 -78 -41c-5 -4 -12 -9 -19 -4c-5 4 -3 13 6 22c10 8 20 15 32 22c50 28 104 48 158 64c37 12 75 21 113 32c10 3 18 7 23 18c17 26 33 52 50 78c1 5 4 7 5 10c5 7 9 13 17 7c4 -2 5 -11 4 -16
c-5 -12 -12 -23 -18 -36c-8 -14 -17 -30 -27 -48c9 2 14 2 20 3c66 13 131 23 199 22c25 0 52 -4 79 -8c14 -3 28 -9 41 -17c28 -16 40 -45 33 -76c-4 -24 -16 -44 -31 -63c-28 -33 -61 -59 -95 -82c-80 -56 -169 -92 -260 -120c-51 -15 -101 -28 -153 -34
c-20 -2 -38 -2 -59 -4c2 -6 4 -10 5 -15c22 -48 55 -90 89 -130c96 -112 209 -199 346 -257c53 -24 109 -36 166 -42c31 -4 61 -4 90 -6c5 0 8 0 12 -2c-16 -9 -36 -12 -53 -14c-69 -12 -135 0 -199 25c-105 39 -198 95 -281 169c-59 53 -114 111 -158 177
c-15 24 -27 50 -42 74c-2 5 -4 11 -7 16c-57 -75 -110 -150 -181 -211c44 82 102 153 155 229c-5 5 -9 7 -13 11c-4 5 -10 9 -13 15c-6 10 -3 21 4 26c7 4 14 2 23 -7c3 -4 7 -9 11 -13c5 9 9 18 20 16c4 0 7 6 8 9c57 83 115 166 172 251c2 3 3 6 7 13zM205 319
c26 -4 49 -1 73 3c82 13 160 38 237 68c75 31 144 71 205 125c22 19 41 39 53 68c11 29 1 53 -27 63c-19 6 -38 10 -57 12c-87 7 -171 -6 -256 -22c-14 -2 -23 -8 -31 -19c-63 -96 -127 -190 -190 -284z" />
    <glyph glyph-name="Q" unicode="Q" horiz-adv-x="607" 
d="M634 662c-5 5 -9 8 -12 14c-13 25 -36 36 -64 37c-51 2 -98 -14 -146 -32c-94 -36 -169 -97 -237 -167c-41 -42 -78 -85 -106 -136c-21 -39 -38 -81 -35 -126c1 -46 32 -76 77 -79c30 -2 58 3 86 13c11 5 13 13 12 23c-1 31 4 61 12 92c14 48 37 93 68 133
c34 46 75 88 125 122c7 5 16 12 27 16c9 5 19 10 29 13c49 11 78 -12 73 -62c-4 -33 -16 -61 -31 -90c-28 -56 -69 -104 -114 -148c-43 -40 -89 -75 -139 -102c-14 -7 -14 -12 -10 -26c16 -53 55 -80 106 -93c44 -12 90 -11 135 -8c52 6 103 14 160 21
c-25 -14 -49 -25 -75 -34c-73 -22 -148 -27 -222 -11c-65 15 -113 51 -135 117c0 1 -1 4 -2 6c-1 1 -1 2 -3 4c-5 -1 -9 -1 -14 -3c-27 -8 -53 -14 -82 -14c-67 3 -111 46 -113 114c-1 47 15 90 36 130c32 61 77 112 126 161c51 50 106 97 170 130c62 33 127 58 198 63
c23 2 46 1 67 -9c17 -7 30 -19 36 -37c4 -11 7 -21 -3 -32zM241 208c10 4 17 7 21 10c52 30 99 68 139 112c44 46 82 96 103 158c5 14 8 28 8 42c3 24 -9 33 -32 27c-15 -5 -29 -12 -42 -19c-38 -25 -69 -57 -100 -90c-47 -53 -82 -112 -94 -183c-3 -18 -6 -35 -3 -57z" />
    <glyph glyph-name="P" unicode="P" horiz-adv-x="843" 
d="M522 655c25 2 46 4 68 4c63 4 126 4 190 -10c16 -4 33 -10 49 -17c42 -20 60 -57 45 -97c-6 -22 -21 -40 -36 -56c-32 -32 -70 -57 -108 -80c-94 -56 -198 -94 -309 -114c-48 -9 -96 -17 -149 -12c-10 1 -16 -4 -20 -10c-28 -36 -56 -71 -84 -107
c-38 -52 -83 -95 -133 -135c-7 -6 -13 -12 -25 -17c3 4 4 7 7 11c46 59 93 118 138 178c24 29 46 59 72 92c-5 1 -8 2 -11 5c-22 17 -24 39 -6 57c18 15 39 26 64 29c20 3 33 12 42 28c46 68 94 136 141 205c1 3 4 6 7 14c-19 -4 -35 -4 -48 -7c-126 -19 -248 -45 -371 -74
c-7 -2 -15 -2 -22 -2c-6 10 -1 13 5 17c12 4 23 10 37 12c79 19 159 37 240 53c55 11 112 19 168 28c10 1 13 8 17 14c27 42 52 86 77 127c6 8 11 17 16 26c4 3 6 7 11 8c3 1 7 1 10 -1s5 -7 4 -10c0 -6 -4 -12 -6 -16c-24 -45 -50 -89 -77 -134c0 -1 -1 -4 -3 -9zM284 304
c26 -3 47 -1 69 1c78 10 155 29 227 57c75 30 145 66 208 115c22 17 42 36 54 63c16 33 4 58 -37 73c-2 1 -6 2 -9 3c-37 11 -74 17 -110 17c-51 0 -103 -3 -156 -3c-19 0 -30 -8 -39 -24c-51 -84 -104 -165 -163 -244c-15 -17 -29 -37 -44 -58zM269 340l-3 3
c-14 -6 -28 -12 -36 -27c5 -3 8 -5 15 -9c7 12 16 23 24 33z" />
    <glyph glyph-name="O" unicode="O" horiz-adv-x="620" 
d="M-2 206c-5 -5 -9 -7 -13 -13c14 21 15 46 16 70c7 90 37 172 74 252c36 76 77 147 128 211c15 17 31 36 48 51c10 11 15 9 28 -3c-60 -65 -110 -139 -152 -221c-42 -81 -80 -163 -93 -259c2 1 3 0 3 -2c8 11 16 21 22 33c76 115 165 215 257 311c46 44 90 85 139 121
c27 18 54 37 85 46c13 5 26 7 41 10c39 2 66 -24 71 -68c4 -32 -1 -62 -9 -91c-22 -73 -53 -140 -93 -202c-60 -91 -128 -175 -204 -248c-51 -48 -106 -92 -169 -118c-23 -9 -46 -15 -71 -16c-42 3 -72 27 -88 70c-10 19 -14 41 -20 66zM31 204c1 -10 1 -17 2 -23
c7 -16 12 -33 20 -47c18 -28 44 -34 73 -30c37 7 73 26 107 48c53 37 101 81 146 130c64 68 123 144 171 229c27 50 53 102 67 161c4 21 7 44 6 65c-2 32 -16 44 -43 41c-25 -1 -46 -9 -67 -22c-68 -41 -126 -96 -182 -154c-104 -106 -195 -223 -290 -339
c-8 -9 -11 -18 -11 -30c1 -12 0 -23 1 -29z" />
    <glyph glyph-name="N" unicode="N" horiz-adv-x="865" 
d="M982 700c-50 -79 -101 -161 -151 -243c-63 -111 -124 -224 -187 -338c-3 -8 -10 -17 -14 -24c-5 -7 -12 -12 -22 -10c-11 3 -16 12 -19 21c-5 29 -11 59 -13 87c0 115 0 229 -1 344c0 51 3 103 3 154c1 6 -1 11 0 21c-8 -7 -13 -11 -15 -16c-38 -46 -73 -93 -110 -137
c-24 -32 -50 -63 -78 -91c-33 -38 -67 -77 -100 -115c-57 -64 -115 -126 -172 -190c-21 -20 -42 -40 -64 -60c-5 -5 -15 -10 -25 -14c-5 -3 -13 -7 -21 1c1 4 2 8 6 11c91 82 170 175 251 265c66 76 133 153 196 231c35 38 66 79 97 120c7 7 14 16 21 23c7 5 14 11 26 6
c13 -5 17 -15 17 -26c-1 -31 1 -62 -1 -92c0 -67 -2 -134 -1 -201c-1 -70 -2 -138 -1 -207c1 -28 5 -54 6 -82c2 0 4 -1 5 -1c3 2 6 4 8 7c27 54 57 108 86 161c35 60 68 121 105 181c45 77 101 191 138 265c40 80 97 40 30 -51z" />
    <glyph glyph-name="M" unicode="M" horiz-adv-x="1124" 
d="M860 50c-12 -20 -24 -38 -44 -56c-1 16 1 29 5 43c7 16 14 33 22 47c250 447 314 550 335 584c4 6 6 12 9 17c-1 1 -2 2 -3 2c-16 -13 -32 -25 -46 -40c-60 -52 -162 -171 -220 -225c-53 -48 -105 -98 -158 -146c-52 -49 -105 -98 -159 -146c-7 -7 -16 -12 -24 -18
c-9 -5 -20 -10 -30 -2s-9 19 -4 29c5 16 12 32 20 45c45 76 90 152 136 227c41 67 85 136 128 204c3 6 6 12 13 22c-7 -2 -10 -2 -12 -4c-73 -60 -151 -112 -233 -161c-85 -49 -170 -97 -257 -145c-66 -37 -134 -70 -205 -97c-30 -11 -63 -20 -94 -29c-7 -2 -15 -4 -24 -2
c-3 1 -8 5 -12 7c3 5 5 11 10 12c7 3 13 4 21 5c63 18 124 43 183 72c153 76 302 159 446 253c73 47 142 100 209 157c5 5 12 10 19 14c5 4 13 4 18 -2c3 -4 4 -12 3 -17l-23 -40c-83 -131 -164 -263 -246 -395c-21 -33 -39 -65 -58 -98c-2 -3 -2 -7 -3 -10l3 -4
c19 18 38 33 58 50c60 57 120 117 183 173c102 92 249 251 352 343c7 7 16 12 24 18c8 4 18 8 27 1c8 -7 8 -18 4 -27c-11 -22 -23 -45 -36 -68c-86 -150 -182 -297 -337 -593z" />
    <glyph glyph-name="L" unicode="L" horiz-adv-x="836" 
d="M862 84c-47 -5 -94 -8 -142 -13c-43 -3 -88 -9 -130 -14c-65 -9 -129 -21 -193 -31c-63 -10 -127 -19 -193 -26c-31 -4 -64 -3 -95 -3h-6c-41 5 -60 31 -49 70c8 25 18 48 31 71c43 78 94 150 147 222c23 30 46 57 66 87c5 4 7 9 8 16c-12 -8 -26 -16 -39 -24
c-59 -37 -118 -73 -179 -110c-21 -12 -45 -21 -69 -31c-6 -3 -14 -5 -23 3c4 3 7 7 11 9c103 51 199 117 297 178c55 33 100 77 145 123c48 50 99 98 157 138c11 8 23 14 35 21c5 2 10 3 13 4c9 3 16 3 22 -3s5 -14 0 -21c-13 -16 -24 -32 -39 -46
c-55 -53 -117 -99 -181 -140c-40 -26 -73 -59 -103 -96c-73 -85 -140 -177 -202 -271c-23 -36 -42 -75 -62 -112c-4 -9 -7 -20 -11 -32c-1 -13 5 -23 18 -26c12 -3 22 -5 33 -4c48 3 96 5 144 12c106 15 211 34 317 50c72 12 145 17 218 22c14 0 28 -1 43 -4
c8 -1 14 -5 11 -19zM508 631c39 21 107 80 117 100c-43 -30 -82 -63 -117 -100z" />
    <glyph glyph-name="K" unicode="K" horiz-adv-x="770" 
d="M207 647c6 6 9 13 15 17c11 7 22 14 36 22c37 18 76 38 119 48c41 12 69 -7 75 -48c5 -34 -3 -66 -13 -97c-22 -69 -55 -132 -91 -195c-9 -17 -19 -34 -31 -52c3 -1 4 -2 5 -2c16 12 30 23 46 37c123 101 252 196 388 281c50 30 100 58 150 85c16 12 36 16 55 22
c5 3 13 4 20 3c4 0 11 -4 12 -8c1 -3 -1 -9 -4 -13s-7 -5 -10 -6c-50 -15 -96 -39 -138 -65c-127 -77 -250 -161 -368 -252c-9 -8 -12 -15 -14 -27c-6 -42 -8 -84 -6 -127c0 -30 2 -59 15 -86c23 -53 66 -89 123 -109c18 -6 36 -11 55 -16c-27 -13 -53 -16 -76 -6
c-75 31 -126 82 -142 161c-7 46 -6 92 -1 138c1 11 1 23 4 37c-13 -9 -24 -18 -34 -26c-45 -38 -90 -76 -134 -115c-11 -10 -20 -22 -28 -35c-46 -69 -95 -137 -151 -199c-23 -24 -48 -46 -74 -69c-5 -5 -13 -8 -21 -11c-8 -5 -17 -6 -25 1c-9 6 -9 16 -6 25s9 19 15 28
c29 44 66 84 103 122l141 138c22 21 37 46 54 71c47 79 96 157 129 243c14 36 26 70 25 108c0 8 -1 16 -3 24c-5 15 -17 22 -33 18c-19 -5 -38 -8 -56 -16c-31 -15 -63 -31 -94 -46c-9 -5 -18 -9 -32 -3zM5 -20c47 37 85 82 118 131c-45 -38 -84 -83 -118 -131z" />
    <glyph glyph-name="I" unicode="I" horiz-adv-x="650" 
d="M631 714c-86 -3 -165 -10 -247 -21c-39 -5 -77 -11 -116 -16c-13 -1 -29 -6 -39 6c2 12 11 13 20 16c35 6 70 12 106 17c114 17 228 27 341 31c29 1 58 2 86 3c88 4 106 -19 5 -26c-35 -4 -70 -5 -105 -7c-10 0 -19 -3 -26 -12c-63 -82 -121 -180 -177 -267
c-66 -101 -133 -201 -200 -302c-12 -19 -36 -66 -53 -82c-4 -3 -8 -7 -15 -12c24 0 45 0 65 1c91 0 181 3 270 2c94 -3 89 -14 -1 -24c-39 -3 -79 -5 -118 -5c-64 0 -125 -2 -189 -4c-59 -1 -117 -2 -176 -2c-29 -1 -59 -1 -87 -3c-19 -1 -23 1 -34 11c2 15 14 16 25 16
c26 3 53 3 78 4c44 1 87 1 130 2c6 0 12 1 15 1c68 80 121 197 178 283c80 122 161 259 252 375c3 3 6 9 12 15z" />
    <glyph glyph-name="J" unicode="J" horiz-adv-x="1051" 
d="M788 381c9 0 17 0 25 2c49 9 98 18 148 27c8 2 18 0 27 -2c10 -4 12 -16 1 -21c-5 -4 -13 -6 -20 -7c-58 -12 -117 -22 -175 -32c-19 -4 -29 -13 -38 -30c-40 -75 -82 -149 -134 -218c-19 -26 -40 -50 -63 -73c-40 -41 -92 -61 -149 -70c-56 -9 -112 1 -165 21
c-72 28 -139 64 -199 116c-17 14 -31 31 -41 52c-13 28 -7 52 19 70c13 9 29 17 46 23c61 22 124 38 188 49c128 24 257 45 387 67c26 6 55 9 83 14c14 2 25 7 32 22c18 44 56 125 72 170c7 18 7 38 7 57c0 20 -12 31 -32 35c-13 2 -29 2 -41 0c-41 -11 -81 -24 -122 -36
c-42 -14 -84 -29 -126 -44c-3 -1 -6 -3 -9 -3c-5 1 -14 2 -15 4c-6 8 1 13 8 16c4 3 9 6 15 7c33 12 67 26 102 38c40 13 80 27 121 39c17 6 35 8 52 9c55 1 85 -36 77 -93c-6 -35 -37 -104 -50 -138c-9 -23 -20 -45 -31 -71zM730 335c-14 -1 -24 -2 -33 -4
c-119 -19 -237 -38 -355 -59c-73 -13 -148 -27 -219 -48c-24 -8 -49 -16 -72 -27c-25 -10 -29 -27 -14 -49c9 -13 19 -25 32 -35c66 -54 140 -95 223 -118c75 -22 147 -13 215 27c35 23 62 54 88 88c47 65 89 134 127 206c3 5 4 10 8 19z" />
    <glyph glyph-name="H" unicode="H" horiz-adv-x="1055" 
d="M854 370c55 -1 107 -2 158 -18v-4c-26 -1 -50 -6 -76 -7c-29 -2 -58 -2 -88 -2c-12 0 -19 -5 -26 -15c-67 -100 -136 -201 -204 -301c-14 -20 -30 -40 -44 -60c-9 -13 -19 -17 -28 -11c-9 5 -10 15 -2 30c7 18 19 31 32 45c21 21 38 46 55 70c52 76 102 152 153 227
c2 4 4 8 8 13c-7 1 -11 2 -15 2c-38 0 -76 -1 -115 0c-12 0 -20 -5 -25 -15c-27 -40 -54 -82 -82 -121c-16 -25 -36 -45 -54 -67c-8 -12 -17 -22 -25 -32c-8 6 -3 14 0 19c16 27 30 55 47 81c27 43 54 83 82 125c1 2 1 4 4 8c-6 0 -9 1 -14 1c-64 0 -128 0 -192 -1
c-93 -3 -186 -6 -280 -9c-32 0 -62 -3 -94 -4c-7 0 -19 -1 -19 10c-1 11 9 14 18 15c25 2 50 7 73 7c99 4 197 7 294 10c73 2 147 3 220 3c13 0 21 5 27 16c53 77 107 154 160 232c18 24 34 48 54 73c4 7 10 15 24 11c-3 -9 -5 -17 -10 -23c-22 -35 -45 -70 -68 -105
c-42 -64 -86 -128 -128 -192c-1 -3 -3 -5 -5 -11h17h115c10 0 15 4 21 13c52 76 103 153 154 231c28 41 57 84 85 127c4 7 8 16 19 11c8 -4 8 -14 2 -25c-14 -25 -29 -50 -45 -74c-57 -89 -115 -176 -172 -264c-4 -4 -6 -11 -11 -19z" />
    <glyph glyph-name="G" unicode="G" horiz-adv-x="1035" 
d="M927 376c-25 -4 -49 -8 -73 -12c-8 -1 -13 -4 -16 -12c-6 -11 -14 -22 -24 -32c-48 -52 -87 -113 -128 -171c-25 -36 -52 -87 -73 -119c-12 -17 -22 -29 -30 -29c-30 0 -6 36 1 48c31 57 74 107 104 164c-23 -14 -47 -27 -70 -41c-90 -50 -180 -92 -275 -114
c-33 -8 -67 -13 -99 -8c-41 8 -58 42 -40 91c12 28 26 50 44 75c33 43 70 79 111 116c38 32 78 66 117 97c5 6 11 11 16 16l-2 4c-16 -6 -30 -12 -46 -16c-94 -30 -187 -61 -280 -81c-45 -9 -89 -13 -133 -19c-7 -1 -15 -1 -23 0c-7 1 -15 4 -15 19c6 1 11 4 17 4
c94 7 188 30 282 60c82 25 166 54 247 81c31 10 60 25 90 44c78 52 156 103 240 144c37 19 75 33 114 48c9 4 20 5 29 4c19 -1 25 -21 12 -40c-11 -13 -25 -24 -38 -34c-45 -35 -91 -58 -139 -78c-66 -29 -131 -54 -197 -79c-27 -10 -55 -24 -79 -42
c-93 -66 -182 -139 -263 -222c-19 -22 -37 -45 -54 -68c-10 -13 -16 -29 -22 -46c-9 -22 -3 -38 16 -42s39 -5 60 -1c68 10 136 35 202 67c67 32 133 67 196 111c25 19 52 40 71 67c5 7 10 13 17 24c-32 -5 -61 -11 -90 -15c-34 -8 -69 -17 -103 -25c-6 -1 -12 -1 -17 -1
c-4 1 -7 6 -7 8c0 3 3 11 5 12c8 6 16 9 24 11c110 23 216 38 321 65c87 22 71 -21 0 -33zM980 698c-40 -5 -209 -93 -234 -122c54 10 211 91 234 122z" />
    <glyph glyph-name="F" unicode="F" horiz-adv-x="794" 
d="M372 422c24 -1 44 -1 65 0c73 1 144 3 217 3c120 0 13 -26 -44 -29c-80 -2 -162 -4 -243 -6c-14 0 -25 -4 -35 -17c-72 -96 -128 -204 -191 -306c-9 -14 -17 -28 -23 -43c-7 -9 -14 -17 -26 -18c-9 7 -8 16 -5 24c5 12 10 25 17 37c36 58 72 117 108 176
c25 39 47 89 76 125c4 6 8 10 14 18c-25 0 -47 0 -69 -2c-23 0 -45 -2 -67 -4c-18 0 -26 3 -26 11s5 14 22 16c35 4 71 5 106 9c16 1 31 2 46 3c11 -1 18 3 24 11c56 70 86 156 147 223c1 3 3 6 6 12c-30 -4 -59 -8 -87 -13c-74 -14 -148 -27 -222 -44
c-53 -11 -103 -28 -153 -42c-12 -3 -26 -11 -39 -2c-1 14 9 18 19 21c32 12 65 22 97 32c126 36 255 58 387 76c15 4 29 8 37 24c2 5 5 10 10 15c8 11 15 14 21 8c8 -6 4 -13 1 -21c-2 -5 -4 -8 -9 -16c26 3 48 6 71 8c59 7 119 14 178 18c56 5 113 7 169 8
c43 1 86 -9 128 -24c2 0 3 -2 4 -5h-36c-85 -1 -172 0 -256 -8c-65 -7 -130 -12 -194 -19c-23 -2 -47 -6 -71 -8c-11 -1 -18 -6 -24 -16c-52 -76 -108 -152 -150 -235z" />
    <glyph glyph-name="E" unicode="E" horiz-adv-x="980" 
d="M123 44c14 -7 27 -4 40 -2c35 4 71 11 107 17c90 13 178 28 268 41c66 11 134 21 200 32c50 6 102 12 153 6c-4 -2 -8 -4 -12 -4c-73 -25 -148 -34 -224 -45c-83 -14 -166 -26 -250 -39c-77 -13 -153 -25 -229 -36c-18 -3 -36 -3 -53 -1c-25 1 -35 18 -27 40
c7 18 16 36 26 52c38 68 78 135 118 202c4 8 9 15 14 28c-9 -3 -14 -1 -20 -3c-61 -10 -121 -20 -182 -31c-11 -1 -22 -6 -32 -8c-4 -1 -8 -2 -11 -2c-4 1 -9 3 -11 7c-1 2 1 9 4 10c6 5 14 10 23 12c28 8 56 16 85 21c50 8 99 15 149 22c11 1 15 5 21 13
c35 61 71 120 107 180c21 37 43 71 65 106c5 9 11 18 19 31c-26 -2 -47 -4 -68 -6c-47 -7 -93 -14 -139 -21c-7 -1 -12 -1 -18 0c-4 1 -8 7 -10 11c0 2 5 8 8 11c5 1 10 4 15 5c64 13 126 23 190 28c11 1 22 1 32 3c9 2 16 8 25 13c6 -13 19 -12 31 -11c40 3 81 4 122 5
c99 0 200 2 300 1c53 -1 108 0 160 -12c25 -5 49 -16 72 -24c1 0 3 -3 4 -7h-38c-173 16 -346 12 -519 12c-40 -2 -82 -4 -122 -5c-12 0 -18 -4 -24 -13c-56 -97 -112 -191 -168 -288c-5 -6 -8 -14 -14 -24h15c67 4 135 9 203 14c49 4 99 1 148 -8c3 -1 6 -2 9 -6
c-36 -4 -74 -9 -110 -13c-59 -4 -120 -8 -178 -11c-31 -2 -61 -6 -91 -7c-10 -1 -17 -5 -23 -14c-49 -87 -100 -172 -149 -258c-4 -7 -7 -15 -11 -24z" />
    <glyph glyph-name="D" unicode="D" horiz-adv-x="1077" 
d="M207 90c-109 -46 -233 -106 -275 -78c0 2 -1 3 -1 5c-24 29 153 55 289 113c11 5 19 10 27 22c108 166 214 332 322 499c4 6 7 13 12 22c-20 0 -36 2 -53 0c-89 -8 -171 -18 -255 -37c-7 -2 -17 -10 -24 3c-2 8 5 26 20 29c103 34 209 33 315 33c12 0 18 5 25 14
c10 17 19 33 31 47c6 9 12 15 20 21c2 3 9 3 10 0c3 -2 4 -9 3 -13c-1 -6 -4 -11 -8 -15c-10 -18 -19 -35 -31 -54c33 -3 63 -5 94 -10c69 -11 139 -23 204 -48c28 -10 54 -23 76 -45c31 -30 36 -68 15 -107c-15 -28 -38 -49 -61 -67c-50 -40 -104 -72 -160 -98
c-80 -38 -160 -73 -242 -107c-93 -37 -186 -68 -279 -103c-18 -6 -29 -15 -39 -30c-15 -24 -32 -55 -49 -78c-74 -87 -5 44 14 82zM292 160c1 -2 1 -3 2 -4c5 1 8 2 11 4c26 8 53 18 80 27c128 48 254 96 378 155c64 30 125 64 181 110c17 14 33 30 46 49
c24 30 19 60 -12 81c-19 13 -41 24 -63 33c-92 31 -186 48 -283 55c-13 1 -21 -3 -26 -14c-29 -50 -60 -99 -90 -146c-67 -106 -137 -213 -205 -318c-7 -11 -12 -21 -19 -32z" />
    <glyph glyph-name="C" unicode="C" horiz-adv-x="696" 
d="M586 530c-7 14 1 22 4 32c7 19 16 39 19 58c6 53 -37 105 -87 109c-28 1 -56 -7 -83 -19c-55 -24 -106 -56 -153 -96c-71 -60 -133 -125 -181 -203c-36 -59 -65 -121 -71 -188c-3 -33 -1 -64 18 -91c21 -35 56 -44 99 -41c41 3 81 17 120 34c96 40 181 96 258 167
c26 23 52 44 81 63c-1 -3 -2 -8 -4 -11c-35 -57 -84 -101 -137 -140c-73 -54 -149 -96 -232 -123c-35 -13 -72 -21 -109 -21c-59 -1 -111 38 -121 104c-7 42 -1 86 13 128c20 66 53 127 95 183c61 78 129 148 210 203c49 32 99 60 155 73c92 24 151 -42 154 -107
c4 -36 -10 -70 -31 -100c-3 -5 -10 -9 -17 -14z" />
    <glyph glyph-name="B" unicode="B" horiz-adv-x="1138" 
d="M853 698c-36 -10 -67 -20 -97 -31c-64 -24 -126 -47 -189 -80c-27 -15 -56 -30 -77 -53c-3 -3 -11 -10 -15 -3c0 5 0 13 2 16c4 9 12 16 19 22c33 31 74 51 112 69c115 52 238 96 358 119c46 8 93 16 137 8c4 -1 10 -3 17 -4c34 -11 42 -47 11 -82
c-17 -20 -40 -39 -61 -56c-77 -55 -160 -97 -242 -134c-32 -13 -65 -28 -95 -42c-9 -2 -18 -9 -25 -13v-6c12 -2 26 -5 39 -8c55 -8 110 -13 164 -24c35 -6 69 -15 102 -29c3 -6 9 -9 14 -12c18 -17 18 -41 -3 -63c-16 -23 -41 -35 -62 -46c-57 -28 -116 -48 -172 -64
c-105 -29 -210 -53 -317 -81c-16 -5 -30 -10 -40 -25c-18 -18 -33 -32 -51 -48c-1 1 -2 1 -3 2c8 17 19 35 32 55c-150 -31 -296 -76 -442 -89v4c21 9 40 17 60 23c61 25 124 38 188 53c67 17 135 33 205 48c9 4 20 6 27 17c65 86 132 173 196 258c5 7 8 14 10 21
c1 15 9 25 17 29c14 8 23 19 32 33c46 65 93 132 139 199c2 4 4 8 10 17zM488 142c11 1 17 1 23 2c101 27 200 53 300 81c54 14 107 34 160 62c11 7 21 15 30 23c8 7 8 14 0 20c-4 4 -10 6 -14 9c-22 6 -41 13 -62 19c-77 20 -157 25 -237 35c-10 3 -14 -4 -22 -12
c-53 -75 -108 -147 -165 -220c-3 -5 -6 -10 -13 -19zM747 489c9 4 11 4 15 5c19 10 39 19 59 28c66 30 133 62 197 105c28 18 55 39 80 61c10 7 22 16 20 30s-17 14 -26 14c-24 0 -48 1 -71 -1c-36 -4 -74 -13 -111 -17c-12 -2 -19 -7 -26 -18c-19 -32 -40 -64 -62 -95
c-23 -35 -47 -70 -75 -112z" />
    <glyph glyph-name="A" unicode="A" horiz-adv-x="935" 
d="M449 -51c0 20 6 35 15 49c29 51 58 102 90 153c43 67 86 133 130 201c3 5 7 10 11 19h-20c-35 -1 -70 -5 -104 -5c-15 -1 -26 -5 -38 -14c-60 -55 -122 -108 -183 -161c-11 -9 -24 -17 -36 -24c-4 -3 -8 0 -14 0c2 4 1 11 4 13c10 10 20 18 30 27c52 47 104 93 157 138
c6 4 10 11 18 19c-15 -1 -25 -2 -35 -2c-99 -5 -196 -9 -295 -14c-48 -3 -98 -8 -146 -10c-9 -1 -18 0 -26 2c-3 2 -6 7 -8 11c-1 3 4 7 7 9c5 2 10 3 15 4c60 5 120 9 180 12c59 5 117 8 176 12c49 2 98 4 148 5c13 0 24 5 33 14c113 103 225 205 337 308
c31 30 61 59 91 89c6 5 10 9 16 12c4 1 13 1 17 -2c3 -2 5 -11 4 -17s-7 -12 -11 -19c-77 -111 -153 -222 -230 -334c-8 -11 -16 -25 -26 -40c35 -4 67 -4 102 -19c-11 -2 -18 -4 -26 -5c-28 -2 -57 -6 -85 -8c-9 0 -15 -2 -20 -10c-72 -115 -145 -228 -217 -344
c-10 -14 -19 -30 -30 -45c-7 -10 -16 -19 -31 -24zM592 401c0 -1 1 -2 2 -3c35 1 69 3 104 3c13 0 22 5 30 16c47 71 95 141 142 211c16 22 32 45 46 67c0 1 -1 1 -2 1c-106 -97 -215 -196 -322 -295z" />
    <glyph glyph-name="braceright" unicode="}" horiz-adv-x="340" 
d="M292 766l-1 5c8 10 14 7 21 6c41 -10 59 -47 41 -85c-9 -21 -22 -42 -35 -63c-16 -26 -33 -51 -46 -78c-21 -37 -21 -72 7 -99c13 -15 11 -23 -14 -34c-45 -20 -77 -52 -98 -93c-24 -45 -46 -91 -68 -138c-18 -37 -39 -73 -65 -107c-27 -38 -63 -65 -114 -73
c-4 -1 -10 -2 -14 -2c-14 -2 -24 3 -24 9c0 7 8 13 22 16l21 5c32 5 57 22 76 46c30 36 52 75 71 116c20 41 40 83 62 124c23 45 54 85 105 112c4 1 5 2 9 5c-2 4 -3 7 -5 11c-17 30 -22 64 -2 100c15 28 33 56 50 83c11 19 23 37 33 55c18 31 9 54 -20 72z" />
    <glyph glyph-name="bar" unicode="|" horiz-adv-x="312" 
d="M0 -56c29 87 58 175 89 263c22 66 45 131 67 196l75 212c3 6 4 12 7 15c3 4 6 8 10 8c8 0 6 -7 6 -11c-1 -6 -1 -12 -3 -17c-16 -49 -32 -100 -49 -149c-28 -86 -58 -171 -88 -257c-30 -91 -61 -182 -93 -273c-21 -59 -38 -41 -21 13z" />
    <glyph glyph-name="braceleft" unicode="{" horiz-adv-x="269" 
d="M92 416c2 -4 1 -7 3 -9c14 -36 5 -71 -17 -106c-23 -39 -49 -78 -72 -116c-16 -25 -32 -50 -47 -77c-6 -9 -10 -18 -13 -27c-9 -25 -3 -45 21 -56c9 -5 19 -9 17 -22c-13 -8 -23 -6 -36 -1c-32 16 -44 42 -33 74c8 23 19 46 33 68c30 47 60 94 90 140c10 15 17 31 26 46
c11 22 12 42 3 63c-3 4 -3 7 -5 11c-5 15 0 26 19 35l33 13c46 18 80 48 105 84c26 36 46 72 71 110c17 28 34 56 60 79c24 23 49 40 82 51c4 1 10 3 13 2c5 0 10 -2 11 -4c0 -4 -4 -8 -6 -12c-4 -3 -8 -4 -12 -5c-47 -19 -81 -51 -104 -88c-19 -26 -33 -54 -49 -80
c-19 -32 -39 -63 -65 -91c-29 -30 -61 -54 -100 -69c-9 -4 -18 -7 -28 -13z" />
    <glyph glyph-name="z" unicode="z" horiz-adv-x="571" 
d="M233 464c-33 -5 -66 -8 -99 -14c-52 -10 -89 -42 -118 -86c-19 -34 -39 -9 -28 8c25 50 66 85 124 100c25 6 51 11 78 14c27 5 54 7 81 10c6 1 11 3 14 1c6 -2 13 -5 16 -10c5 -5 2 -14 -3 -19c-5 -4 -9 -9 -15 -12c-46 -31 -93 -63 -140 -93c-26 -18 -54 -36 -81 -53
c-2 -1 -3 -3 -4 -9c19 2 38 3 56 7c49 5 307 23 356 29c20 1 40 3 57 -16c-8 -9 -18 -10 -28 -12c-57 -7 -322 -24 -380 -30c-36 -5 -69 -11 -105 -15c-17 -3 -26 -1 -30 8s0 20 13 29c22 16 45 31 69 46c52 34 104 69 157 102c3 2 7 7 12 10c-1 1 -1 4 -2 5z" />
    <glyph glyph-name="y" unicode="y" horiz-adv-x="244" 
d="M132 314c9 4 14 6 19 10c25 13 49 27 74 40c7 4 14 6 21 6c5 0 12 -5 14 -8c4 -7 0 -12 -8 -17c-13 -8 -29 -14 -43 -23c-34 -22 -69 -45 -104 -67c-21 -14 -32 -36 -47 -56c-41 -63 -85 -123 -138 -177c-11 -10 -22 -19 -35 -28c-8 -6 -16 -11 -27 -14
c-15 -3 -27 6 -25 23c0 8 3 17 7 24c18 38 46 70 76 99c45 43 91 84 137 127c7 8 15 17 21 26c22 35 44 72 66 109c-11 0 -16 -6 -21 -10c-24 -17 -48 -36 -77 -46c-4 -3 -8 -5 -13 -5c-27 -4 -44 11 -37 38c4 13 10 25 16 37c11 18 22 36 34 53c6 8 14 14 25 3
c-3 -5 -4 -12 -9 -17c-11 -22 -23 -42 -35 -63c-3 -7 -4 -14 -9 -25c11 2 18 1 24 4c18 11 36 21 53 33c22 17 42 35 64 53c8 8 17 15 30 8c9 -5 10 -16 1 -33c-14 -29 -31 -58 -46 -89c-2 -3 -4 -6 -8 -15zM-11 154c-46 -37 -103 -102 -114 -128c28 16 92 88 114 128z" />
    <glyph glyph-name="x" unicode="x" horiz-adv-x="240" 
d="M92 370c19 14 38 28 56 42c20 14 50 48 70 62c39 27 69 7 16 -32c-34 -25 -67 -49 -101 -74c-11 -8 -21 -17 -34 -25c-38 -22 -34 -59 -41 -95c12 -6 20 1 27 6c38 30 76 60 114 91c9 6 17 15 26 21c8 8 17 11 29 8c1 -13 -3 -22 -12 -28c-30 -27 -61 -53 -92 -79
c-19 -15 -40 -28 -61 -43c-2 -2 -4 -3 -6 -4c-31 -14 -54 2 -52 37c1 10 2 21 6 37c-9 -6 -15 -9 -21 -13c-24 -20 -50 -41 -76 -60c-7 -6 -15 -11 -25 -8c-3 11 6 18 12 24c24 21 49 41 74 62c12 11 25 20 38 30c5 4 10 10 12 16c7 24 13 49 19 75c-14 -6 -27 -17 -40 -34
c-6 -7 -9 -12 -14 -20c-4 -5 -11 -10 -18 -6c-6 5 -6 13 -2 19c2 5 5 10 8 15c16 16 33 34 48 50c3 3 6 4 8 6c21 12 39 3 39 -20c0 -14 -4 -27 -7 -42c0 -5 -2 -10 -3 -15c1 0 1 -3 3 -3z" />
    <glyph glyph-name="w" unicode="w" horiz-adv-x="354" 
d="M260 386c-20 -20 -39 -38 -58 -55c-19 -18 -38 -36 -60 -53c-6 -7 -16 -11 -26 -15c-18 -3 -29 6 -27 24c2 11 5 24 9 35c2 6 4 13 4 22c-12 -11 -25 -22 -37 -33c-17 -15 -35 -29 -53 -41c-6 -6 -15 -9 -26 -11c-15 -3 -27 7 -25 23c1 8 2 16 5 23c10 23 23 48 35 72
c18 30 36 61 54 91c4 8 9 16 20 12c8 -3 8 -12 2 -25c-20 -34 -40 -69 -60 -105c-9 -17 -18 -36 -28 -57c11 -2 17 4 22 9c28 24 56 49 84 74c12 10 23 19 33 30c1 1 4 3 5 6c12 5 21 6 27 2c6 -6 7 -15 3 -26c-6 -11 -12 -21 -17 -33c-8 -15 -15 -31 -23 -47
c-1 -1 0 -3 0 -10c9 7 16 11 22 17c36 36 70 72 106 108c3 4 6 11 12 12c5 3 13 6 17 3c5 -2 9 -10 8 -15c0 -10 -4 -23 5 -31c18 -20 39 -22 63 -19c6 1 11 -7 9 -15c-1 -8 -7 -9 -15 -9c-36 -1 -68 4 -90 37z" />
    <glyph glyph-name="v" unicode="v" horiz-adv-x="251" 
d="M240 458l-19 -16c-19 -16 -39 -65 2 -65h15c25 0 32 -20 9 -24c-11 -3 -22 -4 -34 -4c-37 1 -41 32 -38 60c-35 -35 -76 -67 -112 -98c-12 -11 -26 -19 -40 -26c-25 -11 -44 3 -39 30c2 19 8 37 14 55c9 27 20 52 32 78c2 5 4 11 9 14c6 7 13 5 14 -4c1 -7 -1 -14 -2 -21
l-32 -86c-4 -12 -7 -25 -10 -38c1 -1 3 -2 5 -5c8 5 16 8 23 15c26 22 52 46 78 68c19 17 73 74 102 101c20 20 46 -15 23 -34z" />
    <glyph glyph-name="u" unicode="u" horiz-adv-x="220" 
d="M222 355c-40 -34 -125 -49 -122 9c0 3 -1 4 -2 9c-10 -7 -18 -14 -28 -20c-14 -9 -27 -20 -43 -27c-6 -3 -13 -5 -20 -5c-13 0 -20 7 -20 20c0 5 1 12 3 17c9 23 25 41 40 59c6 5 13 8 19 4c6 -6 5 -13 0 -20c-6 -10 -14 -20 -22 -30c-2 -4 -5 -9 -10 -17c8 4 12 4 16 6
c23 18 46 36 69 55c5 3 9 10 16 12c4 3 13 3 18 0c8 -3 9 -11 5 -19c-3 -9 -6 -18 -9 -26c-13 -50 31 -31 59 -22c13 4 53 22 31 -5z" />
    <glyph glyph-name="t" unicode="t" horiz-adv-x="176" 
d="M-1 585c-31 -4 -34 10 -32 14c4 6 11 14 39 12c44 -4 93 -4 139 2c2 1 4 3 5 5c37 52 31 49 69 99c4 8 14 17 22 10c3 -2 4 -11 4 -16c-1 -5 -7 -11 -9 -15c-30 -41 -16 -27 -55 -84c57 -10 186 -8 287 3c32 3 61 6 80 5c33 -2 28 -17 0 -23c-73 -13 -321 -11 -384 -9
c-46 -58 -101 -145 -130 -200c-24 -47 -57 -126 8 -99c29 11 78 44 109 70c6 4 10 9 16 12c8 5 14 9 20 1c5 -8 1 -16 -6 -22c-17 -15 -85 -64 -137 -82c-90 -31 -62 64 -43 108c31 74 91 152 128 211c-44 -1 -93 -2 -130 -2z" />
    <glyph glyph-name="s" unicode="s" horiz-adv-x="219" 
d="M84 371c25 23 24 76 -21 50c-20 -12 -54 -47 -30 -67c13 -13 28 -28 43 -40c38 17 76 28 114 50c7 4 14 7 22 8c7 0 14 -1 17 -10c-4 -12 -15 -15 -24 -18c-36 -16 -111 -35 -129 -62c-6 -11 -16 -21 -27 -29c-28 -18 -58 -32 -92 -36c-9 -1 -19 0 -28 2
c-5 1 -9 8 -10 14c-2 6 5 8 10 12c32 26 68 47 114 62c-4 4 -9 7 -13 12c-9 8 -18 16 -25 25c-15 19 -15 41 1 59c23 24 50 41 83 45c20 3 34 -3 40 -17c8 -15 3 -30 -8 -42c-11 -13 -18 -18 -33 -24c-1 2 -3 3 -4 6zM-35 248c-18 -32 46 -1 82 34c-25 0 -65 -11 -82 -34z
" />
    <glyph glyph-name="r" unicode="r" horiz-adv-x="215" 
d="M170 335c-32 2 -36 31 -42 54c-17 38 -62 -10 -77 -24c-23 -19 -42 -42 -54 -65c-9 -20 -37 -29 -37 -6c0 6 4 10 6 15c25 45 49 91 74 136c3 6 8 13 13 18c2 2 8 4 11 2s6 -7 5 -11c0 -6 -2 -12 -4 -17c-9 -17 -17 -34 -24 -53c4 3 8 6 10 8c13 10 24 21 36 29
c8 7 18 11 27 12c20 5 33 -3 39 -22c3 -10 4 -20 6 -29c3 -15 8 -18 24 -17c6 0 14 1 21 1c38 3 27 -34 -34 -31z" />
    <glyph glyph-name="q" unicode="q" horiz-adv-x="225" 
d="M120 388c-17 -9 -37 -25 -51 -33c-17 -9 -33 -16 -54 -16c-19 0 -28 16 -21 34c3 5 6 13 12 18c32 34 73 58 122 61c6 0 11 0 16 -1c6 -1 10 -3 16 -5c5 4 9 9 14 12c6 3 14 5 20 -1c6 -5 5 -14 0 -21c-1 -2 -2 -3 -3 -4c-40 -42 -72 -92 -101 -141
c-48 -78 -95 -155 -141 -234c-4 -6 -15 -26 -24 -46c-14 -29 -23 -57 6 -38c35 21 74 52 107 73s107 36 41 -8c-46 -29 -94 -58 -142 -86c-6 -4 -13 -6 -20 -8c-27 -8 -44 9 -36 35c5 15 9 32 18 46c33 60 66 120 101 178c27 45 56 89 83 133c4 5 26 34 37 52zM48 365
c22 10 55 33 93 66c-42 -2 -75 -17 -103 -45c-26 -26 -14 -32 10 -21z" />
    <glyph glyph-name="o" unicode="o" horiz-adv-x="208" 
d="M118 367c16 3 31 4 45 7c11 2 29 4 41 6c7 0 9 0 15 -2c4 -2 8 -8 7 -13c0 -2 -7 -8 -10 -8c-13 -3 -24 -5 -37 -6c-25 -5 -50 -8 -74 -13c-7 -1 -13 -4 -18 -10c-28 -26 -42 -44 -67 -52c-36 -11 -73 13 -24 91c17 27 42 48 68 69c11 8 22 15 38 16c22 2 35 -8 34 -30
c0 -10 -6 -22 -8 -34c-3 -6 -6 -12 -10 -21zM22 362c-46 -55 13 -82 39 -25c-21 0 -35 6 -39 25zM107 428c-25 -8 -41 -22 -52 -41c-3 -5 -4 -11 3 -16c8 -8 26 -7 31 4c8 11 14 25 18 37c2 2 0 8 0 16z" />
    <glyph glyph-name="p" unicode="p" horiz-adv-x="299" 
d="M32 326c-87 -82 -136 -162 -192 -258c-5 -5 -8 -11 -14 -17c-5 -5 -13 -7 -20 -2s-7 13 -5 19c3 7 6 12 9 16c73 100 135 205 200 309c14 22 27 43 41 66c4 7 9 13 21 13c9 -8 3 -16 0 -25c-9 -16 -18 -32 -27 -49c-4 -5 -8 -12 -10 -19c1 0 1 -1 2 -2c6 6 11 10 17 16
c26 22 49 45 76 66c14 10 32 17 49 23c6 4 16 4 24 3c22 -3 36 -18 36 -38s-9 -36 -19 -51c-4 -4 -8 -9 -13 -16c6 -1 11 -1 14 -1c17 -1 34 -1 51 -2c9 -1 18 -2 26 -6c9 -3 12 -11 10 -19c-3 -8 -9 -10 -17 -8c-38 8 -75 7 -112 0c-13 -1 -25 -5 -36 -10
c-25 -9 -49 -19 -72 -28c-16 -5 -30 -2 -39 20zM53 349c31 8 57 13 82 21c31 9 51 31 68 56c2 4 5 8 6 13c2 12 -4 19 -16 18c-10 -1 -21 -6 -30 -10c-34 -18 -61 -45 -88 -72c-6 -8 -13 -15 -22 -26z" />
    <glyph glyph-name="n" unicode="n" horiz-adv-x="315" 
d="M176 299c35 13 85 41 120 59c42 19 52 -7 13 -25c-41 -19 -84 -37 -126 -54c-14 -6 -28 -7 -41 -2c-12 6 -17 17 -14 34c3 13 9 22 12 34c12 29 23 51 -19 37c-22 -12 -45 -25 -66 -38c-20 -14 -39 -29 -60 -44c-3 -3 -6 -7 -11 -9c-6 -3 -14 -8 -22 0c-7 7 -5 15 0 21
c11 16 21 32 31 48c13 17 25 35 37 53c3 4 5 7 7 12c10 13 19 19 25 13c6 -4 4 -13 -6 -29c-9 -14 -17 -29 -27 -42c-7 -10 -53 -58 -20 -30c29 24 63 47 96 63c28 14 69 27 73 -17c3 -21 -12 -38 -21 -58c-9 -25 -8 -37 19 -26z" />
    <glyph glyph-name="m" unicode="m" horiz-adv-x="429" 
d="M139 375c10 -5 18 0 26 4c28 16 54 32 82 46c11 6 24 12 36 14c19 4 33 -4 36 -24c3 -12 3 -26 1 -38c-3 -30 11 -37 37 -29c18 4 42 16 59 22c16 5 22 4 25 -1c4 -6 2 -17 -14 -23c-25 -14 -51 -26 -80 -29c-36 -4 -54 13 -55 48c0 8 1 14 1 22c0 28 4 43 -23 25
c-27 -15 -60 -39 -87 -54c-9 -6 -20 -10 -30 -12c-21 -6 -34 2 -41 23c-9 22 -2 34 -26 17c-26 -20 -54 -54 -80 -75c-6 -5 -11 -10 -18 -14c-12 -4 -21 3 -19 16c1 6 3 10 7 16c15 30 30 59 47 90c1 4 3 10 6 12c4 3 10 6 14 4c3 -1 7 -7 7 -12c-2 -7 -5 -13 -7 -19
c-5 -10 -22 -40 -23 -52c11 7 34 36 46 44c8 6 16 10 24 14c22 9 38 1 46 -22c1 -4 2 -9 3 -13z" />
    <glyph glyph-name="a" unicode="a" horiz-adv-x="264" 
d="M273 354c-30 -28 -135 -76 -135 -7c0 11 2 22 4 35c-34 -21 -66 -43 -101 -61c-8 -6 -19 -7 -28 -8c-13 -2 -25 2 -31 13c-7 12 -4 23 3 33c6 8 11 14 19 21c35 30 76 46 124 42c7 -1 15 1 21 8c9 9 18 19 27 28c3 4 7 9 11 10s11 1 15 -1c3 -4 5 -9 4 -15
c-1 -7 -4 -13 -8 -20c-8 -17 -60 -113 1 -95c16 4 35 16 54 25c5 2 11 7 17 6c7 -2 12 -10 3 -14zM10 342c39 7 86 34 113 60c-40 -3 -90 -26 -113 -60z" />
    <glyph glyph-name="b" unicode="b" horiz-adv-x="257" 
d="M2 316c15 14 29 27 45 42c28 28 58 51 93 73c7 4 13 7 21 10c12 4 23 5 33 -4s10 -20 7 -32c-3 -9 -6 -17 -9 -27c6 -1 11 -2 15 -4h35c6 0 10 0 16 -1c8 -2 13 -8 12 -17c-2 -6 -9 -10 -16 -10c-19 1 -39 1 -58 3c-17 1 -30 -3 -43 -17c-15 -20 -37 -37 -62 -45
s-41 1 -46 27c0 2 -2 5 -3 11c-14 -13 -27 -26 -39 -38c-15 -15 -30 -29 -44 -44c-5 -4 -11 -7 -19 -3c-7 4 -8 12 -4 18c6 17 13 31 22 47c17 30 35 60 51 91c4 8 11 13 6 23c0 3 2 8 4 9c26 18 39 45 56 70c39 57 78 112 124 164c13 14 27 28 43 42c6 5 11 9 19 12
c6 1 14 0 19 -4c8 -3 9 -12 6 -19c-8 -17 -15 -34 -25 -48c-26 -33 -53 -65 -81 -95c-29 -33 -61 -63 -93 -95c-12 -13 -23 -27 -33 -42c-17 -27 -33 -55 -50 -83c-2 -4 -2 -8 -4 -12c0 -1 2 -2 2 -2zM102 372c12 1 25 2 38 2c21 3 36 22 33 44c-29 -8 -51 -26 -71 -46z
M124 344c-29 1 -48 -10 -48 -30c18 1 38 13 48 30zM203 622c-5 -6 -98 -111 -89 -114c51 57 256 281 89 114z" />
    <glyph glyph-name="c" unicode="c" horiz-adv-x="224" 
d="M214 345c-4 -3 -9 -5 -14 -7c-44 -19 -88 -35 -136 -38c-11 -3 -24 -2 -36 1c-31 8 -45 33 -31 65c2 4 4 9 6 13c25 33 55 56 96 65c12 4 26 3 38 -1c20 -7 27 -32 13 -48c-3 -2 -7 -5 -12 -5c-2 0 -4 7 -6 9c-3 21 -7 25 -27 20c-32 -9 -57 -29 -76 -53
c-3 -4 -5 -8 -7 -13c-4 -13 -1 -21 13 -24c10 -3 21 -3 31 -1c36 3 69 13 100 27c13 5 25 11 38 14c33 8 38 -7 10 -24z" />
    <glyph glyph-name="d" unicode="d" horiz-adv-x="283" 
d="M65 191c13 6 22 8 27 14c27 20 54 41 79 64c29 26 65 56 93 84c30 27 49 16 16 -17c-54 -55 -108 -110 -172 -154c-9 -6 -20 -12 -30 -15c-23 -8 -43 6 -39 30c3 16 6 31 13 46c19 40 39 82 59 122c2 5 4 9 4 15c-6 -5 -11 -9 -16 -13c-21 -17 -43 -34 -65 -50
c-7 -3 -15 -7 -23 -8c-17 -3 -29 8 -28 24c1 9 6 19 10 28c18 24 44 41 73 51c9 4 19 7 30 7c16 2 28 10 39 21c41 46 74 97 108 149c2 4 5 10 9 14c10 13 19 17 26 13c9 -5 9 -15 0 -31c-9 -12 -18 -26 -25 -38c-59 -91 -114 -182 -161 -278c-12 -23 -22 -45 -27 -78z
M16 341c25 10 46 26 55 42c-23 -7 -44 -21 -55 -42z" />
    <glyph glyph-name="e" unicode="e" horiz-adv-x="214" 
d="M199 367c6 3 12 5 18 7c8 1 13 0 17 -7c3 -7 0 -14 -6 -17c-49 -25 -104 -38 -157 -41c-36 -2 -91 2 -77 56c9 26 14 33 36 45c24 11 51 15 75 15c10 -1 18 -7 20 -17s-2 -19 -11 -24c-13 -8 -28 -14 -44 -19c-12 -3 -26 -4 -39 -4c-20 0 -20 -11 -11 -20
c26 -26 151 0 179 26zM98 396c18 23 -42 0 -75 -22c20 -2 59 7 75 22z" />
    <glyph glyph-name="f" unicode="f" horiz-adv-x="286" 
d="M96 399c43 40 85 83 114 142c-26 -10 -114 -116 -139 -165c65 -11 155 -4 210 5c8 1 15 -1 16 -17c1 -9 -7 -11 -14 -11c-42 3 -79 2 -114 -6c4 -42 -15 -79 -33 -106c-42 -61 -94 -112 -154 -149c-10 -5 -22 -9 -35 -13c-24 -4 -41 17 -37 46c3 11 6 22 11 32
c31 64 64 132 88 183c-25 1 -33 38 0 40c23 3 26 -7 38 15c39 64 80 112 130 162c7 7 14 14 22 19c5 4 9 6 14 9c16 5 32 -10 29 -31c-2 -13 -5 -26 -11 -36c-29 -49 -63 -92 -105 -123c-8 -7 -17 -12 -30 4zM143 346c-34 -7 -90 7 -104 -11c-11 -14 -33 -65 -41 -80
c-19 -41 -37 -83 -57 -124c-2 -4 -2 -11 -3 -15c0 -3 2 -4 3 -5c9 4 20 6 29 10c64 40 116 97 160 166c5 10 13 39 13 59z" />
    <glyph glyph-name="g" unicode="g" horiz-adv-x="298" 
d="M111 308l25 8c82 29 66 21 149 51c5 2 10 4 14 3c5 -1 13 -3 17 -8c5 -6 0 -14 -5 -17c-7 -4 -15 -9 -22 -10c-62 -21 -24 0 -86 -22c-31 -10 -62 -22 -95 -33c-11 -5 -21 -20 -28 -32c-40 -65 -88 -124 -153 -165c-42 -26 -85 -47 -135 -51c-13 -1 -25 0 -36 3
c-25 5 -36 27 -23 49c7 14 18 28 29 38c23 19 47 35 69 52c64 42 134 71 202 100c26 8 50 26 62 50c22 33 25 65 27 65c-17 -8 -47 -32 -63 -40c-15 -8 -27 -12 -42 -16c-10 -5 -20 -1 -28 7c-6 10 -4 20 2 28c7 11 16 22 27 30c24 22 51 35 81 43c8 2 17 2 25 2
c6 1 11 1 17 3c8 2 16 5 20 -2c7 -6 6 -14 2 -23c-17 -39 -34 -78 -52 -113zM-189 55c96 27 200 120 246 205c-73 -20 -200 -98 -257 -145c-49 -35 -66 -78 11 -60zM31 371c-18 -34 54 8 91 45c-26 0 -73 -20 -91 -45z" />
    <glyph glyph-name="h" unicode="h" horiz-adv-x="274" 
d="M155 407c-10 -5 -16 -7 -22 -11c-29 -17 -54 -43 -79 -67c-26 -25 -52 -49 -77 -74c-5 -4 -10 -10 -16 -11c-7 -2 -15 -2 -18 2c-4 3 -7 12 -4 17c1 10 5 18 10 27c49 91 102 182 161 268c40 59 111 171 158 221c16 18 38 -7 23 -19c-81 -99 -179 -249 -246 -357
c-17 -28 -34 -56 -50 -86c9 0 12 5 16 10c20 18 39 37 58 54c17 15 35 29 54 42c4 4 12 6 18 8c30 10 46 -3 43 -36c-1 -10 -4 -20 -6 -31c-3 -10 -4 -20 -6 -35c11 5 20 7 28 10c19 10 38 22 57 31c40 17 41 -12 14 -25c-26 -15 -53 -27 -80 -41c-4 -2 -10 -3 -17 -3
c-18 -1 -29 9 -29 27c0 15 3 30 6 46c1 9 2 19 4 33z" />
    <glyph glyph-name="i" unicode="i" horiz-adv-x="134" 
d="M139 343c-29 -16 -59 -32 -92 -40c-10 -1 -22 -2 -32 0c-18 3 -28 20 -25 37c0 11 1 24 8 33c15 24 26 56 43 79c13 17 45 -1 24 -29c-13 -21 -27 -41 -40 -63c-40 -82 71 -24 92 -1c27 29 45 -4 22 -16zM115 532c11 0 17 -8 15 -17c-3 -10 -17 -24 -30 -32
c-19 -11 -26 -10 -21 15c2 16 13 34 36 34z" />
    <glyph glyph-name="j" unicode="j" horiz-adv-x="221" 
d="M14 296c9 4 18 7 27 11c51 26 104 49 159 65c7 3 13 5 20 6s15 -1 18 -9c4 -9 -1 -16 -9 -21c-3 -1 -7 -2 -12 -5c-82 -23 -159 -59 -233 -102c-12 -7 -21 -18 -30 -28c-34 -49 -71 -100 -114 -144c-35 -35 -71 -69 -116 -92c-8 -5 -16 -9 -25 -11c-27 -7 -45 11 -39 37
c5 13 12 25 21 35c19 24 40 46 62 67c53 50 109 95 171 131c33 20 53 48 71 80c3 6 3 13 4 19c0 26 13 46 29 64c9 11 21 12 28 6c8 -4 12 -15 6 -27c-9 -21 -21 -41 -31 -63c-3 -5 -6 -11 -9 -17c0 -1 1 -1 2 -2zM-89 197c-27 3 -110 -77 -136 -100
c-28 -25 -54 -53 -79 -79c-4 -7 -11 -12 -9 -27c97 50 163 125 224 206zM77 487c13 2 23 3 27 -9c4 -9 -1 -18 -10 -23c-6 -4 -11 -9 -18 -10c-9 -1 -17 3 -22 7c-6 7 -3 19 4 24c5 6 15 10 19 11z" />
    <glyph glyph-name="k" unicode="k" horiz-adv-x="286" 
d="M16 407c-16 14 -13 15 1 26c18 12 31 27 41 44c30 45 61 91 92 136c19 26 40 50 66 70c7 5 16 10 24 14c7 3 16 3 22 -3s9 -13 4 -21c-6 -13 -12 -28 -21 -41c-46 -63 -98 -119 -157 -171c-9 -9 -17 -18 -22 -28c-28 -50 -92 -161 -119 -212c-4 -7 99 102 113 123
c-2 4 -3 6 -3 10c-6 11 0 20 12 20c24 0 40 12 57 23c24 15 48 29 72 44c6 4 15 7 23 7c6 0 11 -3 16 -7c5 -6 3 -12 -2 -17c-5 -6 -11 -11 -17 -14c-27 -16 -51 -29 -76 -43c-7 -5 -14 -7 -23 -12c16 -12 34 -13 51 -14c27 -2 51 5 76 17c9 4 19 9 28 13c8 3 14 3 22 4
c-2 -14 -8 -23 -20 -30c-53 -33 -111 -41 -171 -15c-10 5 -15 4 -24 -3c-53 -49 -103 -99 -146 -155c-3 -4 -6 -10 -12 -12c-3 -1 -11 -3 -15 0c-3 1 -5 8 -5 13c-3 3 1 7 2 11c20 42 41 83 60 125c15 29 31 58 46 86c2 4 3 7 5 12zM109 504c71 67 150 164 121 152
c-25 -12 -97 -108 -121 -152z" />
    <glyph glyph-name="l" unicode="l" horiz-adv-x="161" 
d="M16 219c42 44 88 98 123 133c35 36 50 26 16 -19c-33 -44 -75 -79 -113 -116c-10 -10 -23 -18 -34 -26c-5 -3 -12 -7 -19 -9c-25 -7 -41 7 -43 32c-1 10 0 21 3 31c10 52 33 98 57 144c4 9 9 18 14 25c7 12 14 23 3 34c2 4 4 7 5 8c25 11 36 35 51 55
c38 54 76 110 122 157c8 8 17 16 26 23c4 5 11 9 18 12c9 4 19 7 28 0c9 -8 9 -19 4 -28c-7 -15 -14 -29 -23 -42c-43 -56 -93 -104 -146 -150c-16 -15 -31 -30 -44 -49c-27 -48 -53 -95 -73 -145c-5 -17 -10 -35 -14 -52c-12 -46 24 -31 39 -18zM228 652
c-24 -23 -116 -124 -122 -153c32 31 196 204 122 153z" />
    <glyph glyph-name="exclam" unicode="!" horiz-adv-x="194" 
d="M52 314c2 5 3 10 4 15c14 53 41 101 65 150c26 54 50 108 76 162c1 3 4 7 5 9c5 11 13 15 21 12c7 -3 9 -12 6 -22c-2 -7 -5 -14 -7 -19c-10 -23 -20 -46 -30 -68c-30 -57 -58 -116 -88 -171c-13 -26 -31 -46 -47 -70c-2 1 -3 1 -5 2zM39 203c-3 -9 -7 -19 -12 -26
c-7 -6 -16 -6 -22 -2c-5 7 -6 15 -1 23c3 5 9 11 15 15c3 3 9 4 12 3c3 -3 5 -7 8 -13z" />
    <glyph glyph-name="quotedbl" unicode="&#x22;" 
d="M142 648l27 52l3 3c7 14 25 4 20 -8c-9 -22 -20 -43 -31 -64c-13 -19 -26 0 -19 17zM191 648l27 52l3 3c7 14 25 4 20 -8c-9 -22 -20 -43 -31 -64c-13 -19 -26 0 -19 17z" />
    <glyph glyph-name="numbersign" unicode="#" horiz-adv-x="703" 
d="M320 409c14 0 28 1 41 2c23 1 45 3 68 5c11 0 17 4 24 13c17 28 37 56 55 84c4 6 7 12 13 15c3 3 11 6 13 4c4 -3 6 -10 4 -14c-1 -7 -5 -15 -10 -21c-13 -23 -28 -44 -41 -67c-3 -3 -3 -5 -6 -11c57 -1 115 12 172 -5c-67 -25 -130 -18 -193 -26
c-14 -22 -27 -43 -41 -65c17 -3 32 -5 48 -7v-2c-13 -3 -27 -6 -39 -8c-15 0 -26 -7 -34 -20c-20 -35 -46 -66 -72 -96c-1 -1 -3 -2 -9 -5c7 21 14 39 24 57c9 18 20 36 30 54h-112c-22 -34 -43 -67 -63 -99c-6 18 2 32 6 47c5 16 13 31 19 48c-15 0 -31 0 -47 -1
c-44 -3 -87 -9 -131 -12c-7 -1 -13 0 -19 2c-3 1 -6 7 -6 9c1 3 5 8 9 9c7 2 13 3 21 6c56 5 113 11 169 15c16 3 25 5 32 19c6 12 13 24 20 39c-22 -3 -42 -4 -61 -5c-27 -1 -53 -2 -78 -2c-8 0 -16 1 -20 3c-8 4 -7 11 1 16c5 1 11 3 18 4c47 4 93 8 140 11
c13 0 22 5 29 17c20 35 42 70 62 105c3 4 8 10 12 14c3 3 9 5 11 4c4 -2 7 -8 6 -11c-2 -8 -5 -17 -10 -25c-14 -26 -28 -51 -42 -75c-5 -8 -8 -16 -13 -25zM385 325c13 20 24 39 38 62c-41 -3 -80 -5 -120 -6c-12 -19 -22 -36 -32 -56h114z" />
    <glyph glyph-name="dollar" unicode="$" horiz-adv-x="411" 
d="M404 684l-31 -42c33 -23 38 -48 19 -89c-18 -40 -50 -70 -85 -93c-9 -6 -17 -11 -25 -2c3 11 12 16 19 24c16 15 32 29 47 45c13 15 23 34 25 54c0 7 0 13 -2 19c-4 16 -18 16 -29 1c-26 -36 -50 -72 -75 -110c-17 -25 -34 -51 -51 -79c10 -6 19 -12 26 -21
c19 -14 38 -29 53 -47c27 -33 20 -83 -11 -122c-39 -48 -88 -71 -144 -74c-22 -1 -43 3 -64 4c-4 1 -8 3 -15 3c-6 -11 -12 -23 -19 -35l-19 -39l-12 -18c-3 -2 -10 -5 -13 -4c-2 1 -4 7 -4 11c2 9 3 17 6 26l33 69c-3 3 -8 6 -12 8c-41 22 -65 59 -82 101c-1 3 -2 7 -1 9
c1 6 3 13 7 15c3 3 11 2 14 -1c6 -6 10 -12 15 -19c9 -15 16 -30 26 -44c11 -16 28 -29 49 -38c43 68 84 136 128 205l-14 16c-9 10 -18 21 -23 32c-17 34 -8 75 25 107c30 29 66 48 101 63c20 8 41 14 61 20c10 2 17 6 22 14c12 15 23 28 33 42c5 5 9 13 16 16
c2 3 11 5 13 3c4 -2 5 -9 3 -14c-1 -6 -7 -11 -10 -16zM200 387c-45 -68 -86 -133 -122 -200c23 -11 70 -13 102 -4c29 9 53 24 74 46c35 39 37 78 6 108c-18 17 -39 32 -60 50zM195 430l118 177c-38 -11 -72 -28 -104 -48c-10 -8 -19 -16 -29 -25c-14 -14 -21 -31 -18 -49
c3 -24 14 -40 33 -55z" />
    <glyph glyph-name="percent" unicode="%" horiz-adv-x="519" 
d="M114 516l9 -11c12 8 16 18 16 29c1 9 0 17 -1 26c-3 8 -4 15 -6 24c-1 20 4 31 21 38c17 8 35 13 52 15c68 7 136 6 206 1l18 -1c25 -8 33 -25 25 -49c-3 -8 -7 -15 -12 -22c-28 -36 -55 -73 -85 -106c-91 -102 -176 -209 -255 -320c-19 -24 -34 -52 -49 -76
c-8 -12 -14 -27 -30 -30c-10 9 -8 19 -3 29c10 22 20 42 34 60c46 64 90 126 140 187c63 80 131 158 196 235c10 11 18 23 27 36c4 6 8 13 12 24c-7 2 -14 5 -21 5c-70 5 -141 7 -210 -2c-37 -5 -41 -10 -33 -46c6 -23 3 -48 -12 -68c-17 -22 -41 -21 -56 1
c-28 38 -23 98 12 131c4 5 11 8 16 11c5 0 10 -2 12 -4s2 -9 1 -11c-3 -6 -7 -10 -11 -14c-22 -25 -28 -63 -13 -92zM286 127c7 39 21 72 42 101c3 4 7 9 12 11c3 2 12 1 11 -1c5 -9 11 -9 19 -11c21 -5 31 -18 31 -41c-2 -46 -25 -82 -63 -106c-25 -15 -48 -4 -51 26
c-1 7 0 16 -1 21zM315 103c14 -3 19 5 25 12c15 12 24 29 29 46c3 7 5 15 4 23c0 12 -5 15 -16 15c-13 -2 -25 -5 -30 -21c-4 -15 -10 -29 -14 -45c-2 -10 -3 -20 2 -30z" />
    <glyph glyph-name="ampersand" unicode="&#x26;" horiz-adv-x="597" 
d="M318 179l-12 15l-50 -34c-52 -33 -106 -62 -165 -75c-23 -6 -45 -8 -67 -10c-13 -1 -25 1 -37 3c-29 9 -44 35 -37 66c4 14 11 30 18 43c27 49 63 91 102 130l126 118c5 4 8 7 11 10c13 10 18 22 17 38c0 37 6 73 20 109c13 39 38 71 73 94c18 13 38 21 60 20
c32 -2 48 -23 42 -54c-5 -21 -14 -39 -26 -56c-28 -39 -63 -74 -98 -108c-10 -10 -20 -20 -31 -29c-9 -7 -11 -15 -11 -26c5 -48 16 -94 35 -137c8 -19 16 -37 26 -57c36 26 66 54 93 85c19 22 35 44 53 68c22 30 43 29 26 -8c-13 -25 -27 -47 -48 -67
c-31 -32 -65 -62 -98 -95l-9 -6c2 -5 2 -9 5 -13c10 -13 20 -26 31 -37c15 -16 30 -30 53 -37c14 -4 7 -18 -4 -21c-15 -4 -25 2 -37 9c-24 18 -43 39 -61 62zM222 420c-5 -5 -11 -8 -16 -14c-24 -21 -49 -43 -72 -65c-47 -43 -91 -87 -126 -140c-11 -16 -19 -35 -28 -54
c-7 -20 1 -34 20 -40c5 -2 12 -3 19 -3c19 1 36 2 54 5c77 16 143 54 205 100c12 10 12 11 6 25c-13 27 -25 53 -34 82c-11 32 -18 67 -28 104zM252 486c44 39 82 77 114 119c7 10 12 19 18 30c6 12 12 26 3 37c-11 11 -25 7 -40 1c-8 -3 -14 -7 -21 -11
c-21 -16 -37 -36 -49 -59c-14 -30 -20 -60 -22 -91c-1 -8 -2 -14 -3 -26z" />
    <glyph glyph-name="quotesingle" unicode="'" horiz-adv-x="196" 
d="M142 648l27 52l3 3c7 14 25 4 20 -8c-9 -22 -20 -43 -31 -64c-13 -19 -26 0 -19 17z" />
    <glyph glyph-name="parenleft" unicode="(" horiz-adv-x="235" 
d="M125 6c-5 -8 -14 -8 -23 -8c-6 2 -13 5 -20 8c-59 30 -96 73 -105 131c-9 57 2 113 22 167c50 128 131 238 242 333c48 42 102 78 159 110c8 4 16 8 26 11c6 2 15 0 18 -3c6 -4 0 -9 -5 -14c-3 -3 -6 -3 -9 -6c-114 -62 -208 -140 -283 -235c-57 -71 -101 -148 -128 -232
c-11 -34 -16 -69 -15 -104c2 -61 36 -108 99 -138c10 -4 20 -8 22 -20z" />
    <glyph glyph-name="parenright" unicode=")" horiz-adv-x="351" 
d="M285 525c-1 -67 -16 -132 -44 -195c-29 -63 -68 -121 -116 -174c-49 -55 -107 -101 -177 -136c-28 -13 -57 -22 -88 -24c-6 -1 -12 -1 -17 1c-4 1 -10 4 -10 8c-2 3 2 8 6 11c3 3 9 5 13 5c51 4 92 25 130 50c66 42 120 93 162 154c43 56 76 116 96 181
c27 92 24 182 -14 272c-7 17 -19 32 -28 48c-4 6 -12 12 -3 18c7 4 16 -1 20 -6c20 -17 31 -39 40 -61c20 -49 30 -100 30 -152z" />
    <glyph glyph-name="asterisk" unicode="*" horiz-adv-x="459" 
d="M440 654c-10 -16 -26 -13 -40 -15c-15 -3 -28 -4 -45 -6c-2 -20 -5 -40 -8 -60c-2 -13 0 -27 -14 -38c-23 30 -4 62 -7 92c-11 5 -18 -3 -23 -10l-64 -83c-5 -8 -13 -14 -23 -18c-9 8 -5 15 0 21c13 18 26 37 40 55c6 8 12 17 20 26c-15 7 -32 -9 -45 11c5 4 9 7 14 9
c8 4 17 5 25 5c22 0 36 13 46 30c9 13 20 26 30 38c5 3 14 5 19 4c8 -2 10 -11 7 -19c-2 -5 -3 -11 -4 -15l-4 -18c25 -8 52 12 76 -9z" />
    <glyph glyph-name="plus" unicode="+" horiz-adv-x="255" 
d="M147 393c20 -7 48 9 64 -10c-9 -14 -20 -14 -30 -15c-11 -1 -22 -2 -34 -2c-11 0 -18 -3 -23 -14l-36 -65c-7 -13 -11 -18 -26 -26c-8 7 -3 17 1 26l34 63c1 3 2 6 5 12l-53 -6c-6 0 -12 -1 -18 0c-4 1 -6 7 -9 10c3 3 6 8 10 9l46 9c6 1 14 2 20 2c17 -1 26 8 32 22
c7 14 15 26 24 37c2 5 9 10 12 9c9 -2 8 -9 5 -15c-4 -7 -8 -14 -11 -22c-4 -8 -9 -15 -13 -24z" />
    <glyph glyph-name="comma" unicode="," horiz-adv-x="154" 
d="M56 318c6 -17 -7 -58 -23 -66c-4 -2 -11 -3 -14 -1s-6 9 -4 13c7 18 16 36 24 54c9 7 10 7 17 0z" />
    <glyph glyph-name="hyphen" unicode="-" horiz-adv-x="306" 
d="M55 372c-5 0 -9 0 -12 2c-11 9 -10 18 3 22h47c32 1 64 4 97 6c10 1 21 3 32 2c17 -4 13 -16 3 -24c-3 -2 -9 -2 -12 -2c-33 -3 -67 -6 -158 -6z" />
    <glyph glyph-name="period" unicode="." horiz-adv-x="148" 
d="M64 307c0 -11 -9 -20 -19 -20c-11 0 -17 6 -16 16c0 10 10 19 20 18c8 0 15 -6 15 -14z" />
    <glyph glyph-name="slash" unicode="/" horiz-adv-x="419" 
d="M446 689l38 52c28 19 38 -1 21 -26c-36 -51 -91 -119 -126 -168l-231 -322l-120 -180c-5 -5 -11 -12 -17 -17c-14 8 -9 17 -5 24c15 28 29 56 46 81c60 91 124 179 188 268c68 97 136 192 206 288z" />
    <glyph glyph-name="zero" unicode="0" 
d="M-73 130c6 19 15 50 29 80c46 108 103 210 173 306c41 55 90 100 141 146c12 11 28 19 42 24c26 10 46 -1 49 -27c2 -13 1 -25 -1 -38c-6 -37 -19 -74 -35 -108c-64 -134 -143 -257 -245 -368c-24 -26 -51 -49 -81 -66c-5 -3 -11 -6 -16 -8c-38 -12 -62 7 -56 59z
M333 634c1 2 1 9 0 15c-2 10 -8 14 -18 9c-6 -2 -13 -6 -18 -11c-16 -12 -31 -24 -45 -39c-28 -30 -53 -61 -81 -91c-15 -16 -33 -30 -45 -50c-12 -19 -25 -37 -36 -57c-42 -73 -85 -146 -115 -224c-8 -22 -16 -46 -21 -68c-3 -19 7 -27 26 -18c11 5 21 12 32 21
c33 24 61 55 87 86c76 92 139 192 191 299c20 39 37 80 43 128z" />
    <glyph glyph-name="one" unicode="1" horiz-adv-x="201" 
d="M228 624l-111 -87c-5 -4 -10 -8 -17 -11c-5 -4 -12 -5 -15 1c-3 5 0 12 2 17s9 9 12 12c61 48 120 94 181 140c5 5 11 8 17 11c7 4 15 4 20 -2c7 -6 6 -14 2 -20c-4 -8 -8 -14 -13 -19c-39 -47 -75 -97 -107 -149c-71 -116 -140 -233 -194 -359c-9 -22 -16 -45 -25 -68
c-7 -17 -15 -34 -30 -49c-8 11 -7 23 -4 32c6 27 13 52 23 76c37 96 87 185 140 274c37 64 78 124 117 187c2 4 4 6 6 11c-2 0 -3 2 -4 3z" />
    <glyph glyph-name="two" unicode="2" horiz-adv-x="375" 
d="M-35 70c11 0 21 0 31 1c93 10 186 20 277 30c19 2 35 -2 55 -11c-19 -12 -37 -17 -57 -19c-80 -8 -161 -16 -241 -24c-16 -2 -33 -5 -51 -7c-3 0 -6 0 -9 -1c-35 -2 -49 16 -34 48c20 44 48 83 79 121c40 51 90 95 139 140c61 57 126 110 181 174c22 25 42 52 54 84
c3 5 4 10 6 17c3 16 -2 28 -18 35c-14 7 -29 8 -45 7c-39 -6 -74 -22 -105 -47c-43 -34 -80 -75 -104 -125c-12 -24 -20 -48 -18 -75c1 -7 0 -14 -8 -15c-9 -2 -14 5 -14 14c-1 13 -1 26 1 39c9 41 31 78 57 110c41 51 89 93 152 116c28 9 56 13 84 4c35 -9 53 -37 45 -71
c-10 -39 -33 -72 -58 -102c-44 -53 -95 -98 -145 -145c-51 -48 -103 -94 -151 -143c-39 -40 -71 -86 -98 -135c-2 -4 -4 -8 -5 -12c-1 -2 0 -5 0 -8z" />
    <glyph glyph-name="three" unicode="3" horiz-adv-x="454" 
d="M-58 120c15 -41 49 -58 89 -61c29 -2 58 2 86 13c68 26 126 67 170 127c32 42 48 88 22 135c-13 26 -35 46 -62 59c-10 5 -20 7 -30 11c-7 3 -16 6 -23 11c-14 8 -13 24 2 35c11 8 23 14 34 20c54 27 107 57 152 96c17 15 31 30 46 46c5 5 9 13 14 19c13 25 6 41 -21 46
c-32 8 -66 1 -98 -11c-34 -14 -68 -30 -98 -48c-41 -21 -77 -47 -108 -80c-3 -1 -8 -4 -11 -7c-8 6 -6 13 -2 18c10 13 18 27 30 36c26 21 52 41 82 56c32 19 66 35 102 50c27 11 55 16 83 15c16 0 31 -2 44 -8c29 -11 39 -38 25 -69s-38 -54 -64 -76
c-49 -45 -107 -77 -165 -107c-6 -3 -11 -5 -18 -10l20 -10c19 -11 41 -20 58 -35c55 -47 69 -115 24 -187c-56 -89 -137 -147 -238 -172c-37 -9 -74 -8 -107 7c-15 6 -29 15 -42 27c-27 28 -22 120 4 54z" />
    <glyph glyph-name="four" unicode="4" horiz-adv-x="395" 
d="M22 302c23 3 48 6 70 8c39 3 79 8 118 10c14 1 23 6 30 20c55 91 113 181 176 270c12 18 25 36 39 53c3 4 5 8 10 11c3 3 9 4 13 4c1 -4 4 -10 2 -13c-8 -16 -18 -28 -27 -43c-59 -93 -118 -185 -179 -279c-3 -4 -4 -10 -8 -15c15 -5 34 3 47 -8c-6 -13 -16 -19 -27 -21
c-7 -2 -13 -4 -19 -3c-18 2 -26 -7 -34 -21c-48 -81 -95 -162 -134 -245c-7 -17 -17 -33 -36 -44c-6 18 0 36 9 52c24 48 48 96 74 144c17 30 35 59 53 89c3 6 5 11 9 18c-6 0 -11 1 -14 1c-67 -7 -133 -14 -199 -20c-2 0 -6 0 -9 -1c-9 0 -16 2 -19 10c-4 8 2 16 7 22
c8 8 15 14 21 20c68 61 131 128 193 196c31 32 58 64 86 98c8 8 12 17 19 26c4 7 10 13 17 10c9 -3 8 -12 4 -19c-5 -11 -12 -22 -19 -31c-42 -56 -90 -108 -139 -159c-40 -42 -84 -82 -125 -124c-3 -3 -7 -8 -11 -11c1 -1 1 -3 2 -5z" />
    <glyph glyph-name="five" unicode="5" horiz-adv-x="504" 
d="M86 398c10 2 17 2 26 4c69 15 137 20 200 1c31 -9 57 -25 73 -52c21 -39 11 -82 -14 -127c-26 -46 -64 -83 -108 -113c-72 -49 -145 -72 -223 -68c-34 2 -63 10 -86 31c-20 16 -23 31 -13 59c9 -5 17 -13 22 -20c20 -24 45 -37 78 -39c107 -5 201 37 281 127
c18 22 32 47 39 74c11 40 -1 68 -32 87c-33 20 -74 25 -117 25c-43 -1 -85 -8 -127 -20c-10 -2 -18 -4 -26 -4c-14 0 -19 9 -14 23c4 8 11 16 16 25c45 64 89 130 134 195c4 4 7 11 11 16c12 18 26 26 46 28c71 3 144 15 216 28c17 2 33 7 48 11l15 3c7 1 14 -1 13 -7
c0 -5 -6 -11 -10 -14c-11 -5 -23 -11 -35 -13c-37 -8 -73 -16 -111 -21c-45 -7 -90 -11 -136 -16c-13 -1 -20 -8 -28 -19c-26 -41 -53 -82 -81 -123c-18 -27 -36 -52 -57 -81z" />
    <glyph glyph-name="six" unicode="6" horiz-adv-x="391" 
d="M117 418c13 18 26 24 41 24c42 3 80 -8 113 -33c34 -27 45 -63 38 -106c-9 -50 -33 -94 -65 -131c-47 -54 -106 -90 -176 -102c-32 -6 -62 -2 -87 23c-22 23 -26 51 -24 79c4 25 10 51 18 75c27 73 70 139 114 202c43 59 87 117 137 172l70 70c11 11 20 13 25 6
c4 -4 2 -13 -7 -24c-36 -39 -73 -76 -107 -116c-36 -45 -71 -94 -105 -141c-33 -44 -60 -91 -84 -139c-15 -33 -28 -66 -31 -101c-1 -11 -1 -22 1 -33c7 -30 25 -45 56 -45c24 -1 47 6 69 15c82 35 137 94 162 179c2 8 4 15 5 24c4 32 -7 57 -35 74c-25 16 -52 21 -81 23
c-15 1 -28 3 -47 5z" />
    <glyph glyph-name="seven" unicode="7" horiz-adv-x="427" 
d="M448 660c-12 -2 -25 -2 -40 -3c-103 -11 -209 -23 -314 -35c-13 -1 -24 -3 -31 11c2 12 12 14 21 17c17 2 35 5 52 6c79 9 159 19 238 28c22 2 47 6 69 8c10 1 21 0 29 -3c18 -5 23 -21 14 -38c-10 -13 -17 -26 -28 -38c-31 -35 -62 -68 -92 -104
c-59 -71 -118 -145 -176 -216c-4 -4 -6 -9 -10 -17c6 0 12 -1 17 -1c38 5 77 9 115 11c23 1 27 -1 38 -16c-11 -12 -22 -15 -36 -17c-47 -3 -95 -9 -141 -11c-17 -2 -26 -8 -36 -23c-41 -54 -75 -111 -108 -169c-8 -16 -19 -26 -35 -30c-5 16 2 30 9 45c29 45 57 94 87 141
c5 7 10 13 17 25c-12 0 -19 0 -28 -2c-17 -2 -32 -4 -49 -7c-5 0 -12 -1 -15 1c-6 2 -10 6 -10 11c-1 4 5 11 11 12c17 6 36 9 52 12c17 4 34 6 51 7c12 2 20 9 27 18c67 91 138 179 213 265c26 29 52 57 77 86c6 6 10 13 15 19c0 3 -2 5 -3 7z" />
    <glyph glyph-name="eight" unicode="8" horiz-adv-x="371" 
d="M165 246c-12 -5 -17 -9 -27 -14c1 11 -1 18 2 26c3 10 1 15 -6 24c-17 18 -33 41 -43 65c-25 56 -23 115 10 173c53 91 129 150 229 176c21 5 41 6 61 0c27 -9 40 -29 38 -59c-1 -29 -13 -54 -29 -79c-30 -50 -68 -95 -107 -141c-34 -42 -68 -84 -102 -127
c-13 -17 -12 -17 0 -32c12 -18 24 -36 30 -60c6 -35 -6 -65 -34 -90c-34 -30 -74 -48 -117 -55c-16 -2 -32 -3 -48 -1c-41 3 -66 37 -66 82c-1 27 9 49 24 72c25 37 58 66 94 91c7 3 13 7 20 8c4 1 11 -3 13 -5c1 -3 -1 -10 -5 -14c-3 -4 -7 -5 -12 -9
c-30 -23 -60 -46 -82 -77c-8 -13 -17 -29 -22 -44c-13 -36 5 -72 38 -77c12 -1 26 -1 37 0c36 5 70 18 102 42c31 26 39 51 24 87c-5 13 -14 26 -22 38zM163 298c2 2 4 5 6 9c33 40 65 80 98 120c37 45 75 88 106 138c12 19 23 40 28 63c5 25 -7 42 -32 42
c-16 1 -35 0 -50 -4c-85 -28 -151 -81 -195 -159c-39 -69 -28 -148 39 -209z" />
    <glyph glyph-name="nine" unicode="9" horiz-adv-x="375" 
d="M206 272c-24 -10 -46 -20 -71 -24c-57 -10 -100 23 -102 78c-2 25 2 48 12 72c36 97 97 178 185 240c26 19 56 34 88 41c41 9 69 -10 75 -50c4 -33 -2 -64 -13 -96c-20 -57 -49 -111 -79 -163c-40 -68 -80 -133 -127 -196c-31 -42 -63 -83 -105 -117
c-21 -15 -44 -28 -68 -30c-13 -1 -24 4 -37 8c-27 8 -20 33 12 26c25 -8 49 -3 71 15c19 16 38 32 53 50c38 43 72 88 102 137c1 2 2 6 4 9zM362 578l3 30c0 39 -21 52 -61 39c-1 -1 -3 -1 -7 -3c-37 -15 -69 -37 -99 -65c-43 -40 -78 -87 -106 -139
c-16 -33 -31 -68 -30 -105c0 -43 29 -65 73 -59c34 6 63 26 90 47c19 14 36 31 46 52c13 26 28 49 41 74c21 41 42 83 50 129z" />
    <glyph glyph-name="semicolon" unicode=";" horiz-adv-x="168" 
d="M56 319c6 -17 -7 -58 -23 -66c-4 -2 -11 -3 -14 -1s-6 9 -4 13c7 18 16 36 24 54c9 7 10 7 17 0zM93 418c0 -11 -9 -20 -19 -20c-11 0 -17 6 -16 16c0 10 10 19 20 18c8 0 15 -6 15 -14z" />
    <glyph glyph-name="less" unicode="&#x3c;" horiz-adv-x="393" 
d="M91 342l39 -11l102 -22c12 -3 25 -7 33 -20c-10 -6 -21 -11 -32 -8c-49 10 -98 21 -147 34c-8 1 -17 7 -25 11c-11 10 -13 22 -2 32c8 7 17 12 26 16c50 22 100 44 150 67c24 10 48 23 72 34c6 3 13 6 22 8c2 0 8 -2 10 -5c0 -3 0 -9 -1 -13c-3 -4 -8 -7 -13 -10
c-29 -15 -57 -30 -86 -44c-47 -22 -93 -41 -140 -61c-2 -1 -3 -3 -8 -8z" />
    <glyph glyph-name="equal" unicode="=" horiz-adv-x="282" 
d="M64 398c-3 0 -7 -1 -10 0c-9 0 -17 2 -18 13c-1 9 8 11 15 12l152 7c4 0 11 -1 13 -4c3 -4 8 -9 7 -14c0 -4 -7 -8 -11 -9c-12 -2 -24 0 -36 0c-15 -2 -29 -2 -112 -5zM38 342l120 2c15 0 24 -5 24 -14s-6 -12 -24 -13l-89 -4c-10 0 -20 0 -30 3c-6 0 -12 3 -16 6
s-5 9 -4 14c0 3 7 5 10 6s5 0 9 0z" />
    <glyph glyph-name="greater" unicode="&#x3e;" horiz-adv-x="383" 
d="M99 444c13 11 25 5 35 3c49 -12 52 -13 98 -25c22 -6 44 -12 63 -18c9 -3 16 -8 16 -18c1 -9 -5 -16 -13 -19c-11 -7 -21 -12 -34 -16l-163 -58c-15 -3 -29 -7 -42 -11c-7 -1 -17 -3 -19 7c-2 8 5 13 13 14c7 3 15 6 21 8l148 48c17 5 33 14 54 22c-10 5 -14 7 -19 8
l-89 22c-30 6 -16 4 -46 12c-10 2 -21 6 -23 21z" />
    <glyph glyph-name="cent" unicode="&#xa2;" horiz-adv-x="324" 
d="M57 276l-8 3c-34 10 -44 30 -33 70c15 61 82 130 144 149c13 3 26 3 42 6c9 14 20 29 31 45c8 10 16 20 26 30c13 13 19 0 16 -10c-2 -4 -7 -9 -10 -13c-13 -21 -28 -40 -41 -60c7 -11 13 -19 18 -28c5 -10 7 -20 1 -33c-3 -4 -8 -10 -13 -11c-4 0 -9 4 -10 7
c-3 11 -5 24 -16 32c-32 -47 -60 -94 -90 -145c43 11 75 43 114 56c-1 -19 -14 -32 -28 -43c-29 -20 -60 -35 -91 -44c-14 -5 -22 -11 -27 -23c-13 -22 -24 -45 -39 -68c-84 -140 -23 26 14 80zM180 474c-12 -4 -22 -6 -31 -10c-43 -21 -76 -54 -97 -96
c-4 -12 -7 -24 -9 -37c-3 -10 3 -17 13 -20c13 -6 21 -2 32 13c23 40 49 80 74 120c5 8 10 17 18 30z" />
    <glyph glyph-name="Euro" unicode="&#x20ac;" horiz-adv-x="490" 
d="M423 523c1 12 -3 20 -11 27c-21 19 -48 26 -83 18c-25 -7 -50 -18 -74 -32c-34 -21 -66 -48 -97 -80c7 -1 9 -2 13 -2c47 3 92 6 138 8c28 2 57 -10 9 -25c-8 -2 -17 -3 -25 -4c-38 -3 -75 -3 -113 -6c-9 0 -17 -2 -24 -1c-20 3 -32 -8 -43 -26l-21 -35l63 4l151 7
c90 -11 -24 -31 -59 -33c-53 -2 -108 -6 -160 -8l-11 -3c-18 -46 -29 -91 -11 -132c9 -18 26 -25 48 -26c26 0 52 7 78 15c40 13 80 31 119 54c48 29 103 40 27 -11c-69 -45 -140 -76 -214 -85c-59 -7 -92 18 -96 74c-4 27 1 56 11 86l7 24h-19c-7 0 -15 -1 -20 0
s-9 6 -8 10s5 11 11 13c7 4 15 4 23 5c10 2 18 2 27 3c11 19 23 38 35 58h-45c-8 0 -17 0 -23 1c-14 0 -9 16 3 20c5 3 10 3 15 4l51 5c16 0 29 4 43 20c34 39 74 71 120 97c24 14 52 25 80 30c40 7 74 -3 97 -28c9 -10 15 -24 10 -40c-6 -23 -25 -36 -22 -6z" />
    <glyph glyph-name="yen" unicode="&#xa5;" horiz-adv-x="406" 
d="M185 420c16 20 28 37 42 53c27 33 56 66 84 97c8 9 19 15 29 23c3 2 6 4 11 6c6 1 15 3 20 -5c4 -9 -3 -14 -9 -18c-59 -45 -100 -105 -142 -164c-2 -1 -2 -3 -3 -7c6 0 11 -1 16 -1c29 -2 56 -2 83 -4c32 -2 41 -31 2 -27c-25 1 -51 5 -76 4c-60 -3 -43 6 -74 -43
c-3 -5 -5 -12 -9 -18c15 0 27 -1 40 0c25 0 52 1 78 1c53 0 43 -26 -4 -29l-118 -4c-12 0 -18 -5 -22 -15c-17 -34 -32 -68 -49 -101c-9 -18 -20 -36 -31 -55c-7 22 -2 51 12 86c11 26 24 52 37 81l-48 -6c-8 0 -15 -1 -23 0c-3 0 -8 5 -8 7c0 4 2 10 4 11c8 5 15 8 23 9
c19 3 37 6 56 8c9 1 16 4 19 12c9 16 18 30 29 50c-19 -2 -32 -3 -47 -6c-26 -4 -52 -10 -80 -14c-8 -2 -19 -7 -22 4c-2 11 8 15 15 16c26 8 54 14 81 20c22 4 43 6 70 10l-34 42c-32 41 -63 83 -95 125c-5 6 -7 14 -8 21c-1 5 2 11 6 14c3 2 9 -1 13 -3s6 -6 10 -11
l88 -114c8 -11 14 -25 22 -36c3 -6 7 -11 12 -19z" />
    <glyph glyph-name="multiply" unicode="&#xd7;" horiz-adv-x="288" 
d="M186 312c-33 4 -48 31 -74 43l-55 -41c-7 -3 -11 -8 -18 -11c-4 -1 -10 0 -12 3c-3 3 -3 10 -1 13c3 6 9 12 14 16c17 13 32 25 50 38c-8 8 -16 13 -23 20c-6 5 -15 9 -9 18c7 9 15 4 22 -1l34 -20c22 11 41 30 71 29c-9 -22 -28 -33 -45 -47c15 -20 47 -26 46 -60z" />
    <glyph glyph-name="divide" unicode="&#xf7;" horiz-adv-x="308" 
d="M206 389v1c9 -1 18 -2 27 -6c15 -1 5 -22 -16 -21c-47 1 -94 1 -141 3c-9 0 -16 1 -24 3c-3 2 -7 7 -7 10c1 3 3 8 6 9c5 2 11 3 16 3c24 -1 47 0 70 0c22 -2 45 -2 69 -2zM141 316c1 -2 5 -6 5 -9c0 -9 -8 -17 -17 -16c-8 2 -12 5 -10 12c0 8 10 14 22 13zM146 427
c-2 -1 -7 6 -7 10c0 6 5 11 12 9c19 -5 7 -18 -5 -19z" />
    <glyph glyph-name="colon" unicode=":" horiz-adv-x="168" 
d="M93 418c0 -11 -9 -20 -19 -20c-11 0 -17 6 -16 16c0 10 10 19 20 18c8 0 15 -6 15 -14zM64 318c0 -11 -9 -20 -19 -20c-11 0 -17 6 -16 16c0 10 10 19 20 18c8 0 15 -6 15 -14z" />
    <glyph glyph-name="quotedblright" unicode="&#x201d;" 
d="M142 648l27 52l3 3c7 14 25 4 20 -8c-9 -22 -20 -43 -31 -64c-13 -19 -26 0 -19 17zM191 648l27 52l3 3c7 14 25 4 20 -8c-9 -22 -20 -43 -31 -64c-13 -19 -26 0 -19 17z" />
    <glyph glyph-name="quotedblleft" unicode="&#x201c;" 
d="M212 700l27 -52c7 -17 -6 -36 -19 -17c-11 21 -22 42 -31 64c-5 12 13 22 20 8zM163 700l27 -52c7 -17 -6 -36 -19 -17c-11 21 -22 42 -31 64c-5 12 13 22 20 8z" />
    <glyph glyph-name="quoteright" unicode="&#x2019;" horiz-adv-x="196" 
d="M142 648l27 52l3 3c7 14 25 4 20 -8c-9 -22 -20 -43 -31 -64c-13 -19 -26 0 -19 17z" />
    <glyph glyph-name="quoteleft" unicode="&#x2018;" horiz-adv-x="196" 
d="M163 700l27 -52c7 -17 -6 -36 -19 -17c-11 21 -22 42 -31 64c-5 12 13 22 20 8z" />
    <glyph glyph-name="plusminus" unicode="&#xb1;" horiz-adv-x="255" 
d="M156 434c20 -7 48 9 64 -10c-9 -14 -20 -14 -30 -15c-11 -1 -22 -2 -34 -2c-11 0 -18 -3 -23 -14l-36 -65c-7 -13 -11 -18 -26 -26c-8 7 -3 17 1 26l34 63c1 3 2 6 5 12l-53 -6c-6 0 -12 -1 -18 0c-4 1 -6 7 -9 10c3 3 6 8 10 9l46 9c6 1 14 2 20 2c17 -1 26 8 32 22
c7 14 15 26 24 37c2 5 9 10 12 9c9 -2 8 -9 5 -15c-4 -7 -8 -14 -11 -22c-4 -8 -9 -15 -13 -24zM157 261l-129 -4c-10 0 -20 -1 -30 -1c-4 0 -9 0 -13 2c-3 2 -5 7 -4 10c0 4 2 7 4 10c3 1 8 1 11 2c55 2 109 5 163 8c35 3 31 -24 -2 -27z" />
    <glyph glyph-name="sterling" unicode="&#xa3;" horiz-adv-x="513" 
d="M196 380c-15 0 -26 -1 -36 1c-7 0 -13 1 -19 5c-3 2 -6 9 -4 13c0 3 6 9 10 11c7 2 14 2 21 2c14 1 29 0 44 0c15 24 22 49 32 74c16 38 30 77 47 116c15 35 39 68 68 94c10 8 22 18 33 22c25 12 43 4 50 -22c5 -22 2 -47 -10 -71c-9 -18 -23 -36 -36 -52
c-5 -10 -15 -17 -23 -9c-6 7 1 17 6 24l22 29c8 15 14 31 14 48c2 25 -8 30 -29 16c-23 -16 -40 -41 -56 -66c-20 -31 -31 -66 -44 -100l-34 -98h64c22 0 47 4 69 4c12 0 21 -1 30 -5c11 -4 12 -16 -1 -22c-10 -6 -21 -10 -30 -10c-45 -2 -90 -3 -132 -4
c-13 0 -24 -4 -32 -19c-26 -46 -59 -82 -98 -114c-4 -5 -10 -8 -14 -11c1 -1 1 -2 1 -4c5 -1 11 -1 15 -1c53 7 102 3 148 -16c46 -15 90 -4 137 28c62 49 44 -1 13 -28c-49 -39 -99 -50 -149 -37c-20 3 -40 10 -59 15c-62 12 -125 -2 -189 -24c-24 -7 -46 -17 -69 -27
l-21 -8c-9 -1 -17 -1 -21 10c-2 8 3 21 13 27c8 5 17 8 25 13c23 10 48 20 70 32c64 36 119 82 163 149c3 2 5 7 11 15z" />
    <glyph glyph-name="at" unicode="@" horiz-adv-x="599" 
d="M388 467c-6 7 -14 14 -26 4c7 -11 2 -22 -3 -32c-4 -9 -12 -19 -7 -29c13 -4 21 4 29 10c26 21 44 47 54 74c16 37 25 76 18 115c-8 38 -34 55 -79 47c-48 -8 -89 -30 -127 -56c-52 -39 -93 -86 -126 -138c-37 -56 -66 -114 -83 -175c-8 -28 -14 -55 -11 -84
c0 -11 3 -23 7 -32c11 -33 39 -52 79 -54c52 -3 98 13 139 39c80 50 145 111 193 184c10 16 16 34 26 51c2 4 3 10 7 14c3 3 11 7 14 6c6 -2 10 -8 11 -13c1 -6 -2 -13 -4 -19c-14 -37 -38 -71 -65 -103c-45 -53 -97 -100 -158 -139c-42 -26 -87 -42 -138 -47
c-81 -4 -136 34 -142 105c-5 39 4 78 16 114c29 88 74 170 139 241c40 45 87 83 145 109c30 14 61 24 96 23c48 0 80 -23 88 -64c9 -48 0 -92 -20 -136c-14 -30 -33 -57 -61 -79c-10 -8 -20 -13 -31 -18c-18 -7 -30 -1 -42 12c-1 2 -2 4 -4 6c-14 -6 -24 -12 -34 -19
c-3 -1 -7 -4 -11 -5c-9 -3 -18 -3 -25 5c-9 6 -8 13 -3 21c5 7 11 17 17 25c23 25 49 49 86 61c9 3 20 4 29 4c6 -1 12 -7 17 -12c3 -5 1 -12 -10 -16zM326 449c-16 -10 -31 -18 -40 -38c19 12 31 23 40 38z" />
    <glyph glyph-name="asciicircum" unicode="^" horiz-adv-x="300" 
d="M188 605c-7 13 -2 20 3 26c9 13 19 25 28 37c16 21 32 42 47 63c6 8 13 15 19 22c5 4 13 7 18 3s7 -10 7 -16c1 -5 -2 -11 -4 -15c-7 -30 -16 -61 -24 -91c-4 -16 -10 -24 -16 -21c-12 5 -11 16 -9 24l10 47c1 3 2 8 1 14c-15 -18 -30 -36 -44 -54c-6 -8 -12 -17 -19 -25
c-4 -5 -10 -8 -17 -14z" />
  </font>
</defs>
</svg>
